<svg width="369" height="262" viewBox="0 0 369 262" fill="none" xmlns="http://www.w3.org/2000/svg">
<path d="M113.779 20.0743H217.618V81.3176C217.618 82.5645 217.097 83.7604 216.169 84.6421C215.242 85.5238 213.984 86.0191 212.672 86.0191H118.726C117.414 86.0191 116.156 85.5238 115.228 84.6421C114.3 83.7604 113.779 82.5645 113.779 81.3176V20.0743Z" fill="white"/>
<path d="M212.672 86.5759H118.726C117.257 86.5726 115.85 86.0159 114.813 85.0278C113.776 84.0397 113.193 82.701 113.193 81.3052V20.0743C113.193 19.9255 113.255 19.7826 113.364 19.6762C113.474 19.5698 113.623 19.5084 113.779 19.5052H217.618C217.777 19.5052 217.929 19.5651 218.042 19.6719C218.154 19.7786 218.217 19.9234 218.217 20.0743V81.3052C218.217 82.7031 217.633 84.0437 216.593 85.0322C215.553 86.0206 214.142 86.5759 212.672 86.5759ZM114.378 20.6434V81.2681C114.378 82.3652 114.836 83.4176 115.651 84.1945C116.466 84.9715 117.571 85.4096 118.726 85.4129H212.672C213.828 85.4129 214.937 84.9762 215.755 84.1989C216.573 83.4216 217.032 82.3674 217.032 81.2681V20.6434H114.378Z" fill="#363732"/>
<path d="M118.726 11.3147H212.672C213.984 11.3147 215.242 11.81 216.169 12.6917C217.097 13.5734 217.618 14.7692 217.618 16.0162V20.0743H113.779V16.0162C113.779 14.7692 114.3 13.5734 115.228 12.6917C116.156 11.81 117.414 11.3147 118.726 11.3147Z" fill="white"/>
<path d="M217.618 20.6434H113.779C113.623 20.6402 113.474 20.5788 113.364 20.4724C113.255 20.366 113.193 20.2231 113.193 20.0743V16.0161C113.197 14.6226 113.781 13.287 114.818 12.3016C115.854 11.3162 117.26 10.7611 118.726 10.7579H212.672C214.136 10.7644 215.537 11.3209 216.571 12.3059C217.605 13.291 218.188 14.6247 218.191 16.0161V20.0743C218.191 20.221 218.132 20.3622 218.025 20.4682C217.918 20.5743 217.772 20.637 217.618 20.6434ZM114.378 19.5052H217.032V16.0161C217.029 14.919 216.568 13.868 215.751 13.0934C214.933 12.3187 213.826 11.8838 212.672 11.8838H118.726C117.574 11.887 116.47 12.3235 115.655 13.0977C114.841 13.872 114.381 14.9212 114.378 16.0161V19.5052Z" fill="#363732"/>
<path d="M139.345 44.584C143.04 44.584 146.036 41.7368 146.036 38.2246C146.036 34.7124 143.04 31.8652 139.345 31.8652C135.65 31.8652 132.654 34.7124 132.654 38.2246C132.654 41.7368 135.65 44.584 139.345 44.584Z" fill="url(#paint0_linear)"/>
<path d="M127.187 57.4513C127.29 54.4503 128.617 51.6051 130.887 49.5169C133.157 47.4288 136.193 46.2614 139.352 46.2614C142.511 46.2614 145.546 47.4288 147.816 49.5169C150.086 51.6051 151.413 54.4503 151.516 57.4513H127.187Z" fill="url(#paint1_linear)"/>
<path d="M192.052 44.584C195.748 44.584 198.743 41.7368 198.743 38.2246C198.743 34.7124 195.748 31.8652 192.052 31.8652C188.357 31.8652 185.361 34.7124 185.361 38.2246C185.361 41.7368 188.357 44.584 192.052 44.584Z" fill="url(#paint2_linear)"/>
<path d="M179.894 57.4513C179.997 54.4503 181.324 51.6051 183.594 49.5169C185.864 47.4288 188.9 46.2614 192.059 46.2614C195.218 46.2614 198.253 47.4288 200.523 49.5169C202.793 51.6051 204.12 54.4503 204.223 57.4513H179.894Z" fill="url(#paint3_linear)"/>
<path d="M177.121 38.7937H161.501C161.342 38.7937 161.19 38.7338 161.077 38.627C160.965 38.5203 160.902 38.3755 160.902 38.2246C160.902 38.0736 160.965 37.9289 161.077 37.8221C161.19 37.7154 161.342 37.6555 161.501 37.6555H175.742L172.63 34.55C172.575 34.4982 172.532 34.4365 172.502 34.3686C172.472 34.3006 172.457 34.2277 172.457 34.1541C172.457 34.0804 172.472 34.0075 172.502 33.9395C172.532 33.8716 172.575 33.8099 172.63 33.7582C172.744 33.6545 172.896 33.5967 173.054 33.5967C173.211 33.5967 173.363 33.6545 173.477 33.7582L177.538 37.8287C177.62 37.9066 177.675 38.0063 177.696 38.1145C177.716 38.2227 177.702 38.3344 177.655 38.4349C177.612 38.5374 177.539 38.6259 177.444 38.6896C177.35 38.7533 177.237 38.7895 177.121 38.7937Z" fill="#231F20"/>
<path d="M173.216 42.4188C173.055 42.4173 172.9 42.355 172.787 42.2456C172.675 42.1389 172.612 41.9943 172.612 41.8435C172.612 41.6927 172.675 41.5481 172.787 41.4414L176.692 37.8287C176.807 37.7302 176.958 37.678 177.113 37.6831C177.267 37.6881 177.414 37.75 177.522 37.8557C177.63 37.9614 177.69 38.1027 177.691 38.2499C177.692 38.3971 177.632 38.5388 177.525 38.6452L173.62 42.258C173.511 42.3581 173.367 42.4155 173.216 42.4188Z" fill="#231F20"/>
<path d="M169.715 43.5571H154.094C153.978 43.5589 153.864 43.5282 153.767 43.4687C153.67 43.4093 153.593 43.3238 153.547 43.223C153.5 43.1204 153.487 43.007 153.508 42.897C153.528 42.7869 153.583 42.6852 153.664 42.6044L157.726 38.5463C157.779 38.4895 157.843 38.4435 157.916 38.4109C157.988 38.3783 158.066 38.3597 158.146 38.3564C158.226 38.353 158.306 38.3649 158.381 38.3914C158.456 38.4178 158.525 38.4583 158.583 38.5103C158.641 38.5624 158.688 38.625 158.72 38.6946C158.753 38.7641 158.77 38.839 158.771 38.915C158.773 38.991 158.758 39.0665 158.728 39.1371C158.698 39.2076 158.654 39.2718 158.598 39.3257L155.474 42.4188H169.715C169.872 42.422 170.023 42.483 170.134 42.589C170.246 42.6951 170.31 42.838 170.313 42.988C170.313 43.1389 170.25 43.2837 170.138 43.3904C170.026 43.4971 169.873 43.5571 169.715 43.5571Z" fill="#231F20"/>
<path d="M157.986 47.1698C157.911 47.1709 157.836 47.1571 157.767 47.1295C157.697 47.1018 157.634 47.0608 157.582 47.009L153.677 43.4086C153.568 43.3004 153.507 43.1563 153.507 43.0065C153.507 42.8567 153.568 42.7126 153.677 42.6044C153.79 42.4979 153.942 42.4381 154.1 42.4381C154.259 42.4381 154.411 42.4979 154.523 42.6044L158.429 46.2172C158.484 46.2689 158.527 46.3306 158.557 46.3986C158.587 46.4665 158.603 46.5394 158.603 46.6131C158.603 46.6867 158.587 46.7596 158.557 46.8276C158.527 46.8956 158.484 46.9572 158.429 47.009C158.37 47.0624 158.3 47.1042 158.224 47.1318C158.148 47.1594 158.067 47.1723 157.986 47.1698Z" fill="#231F20"/>
<path d="M196.66 64.9366H134.737C134.564 64.9366 134.399 64.8714 134.277 64.7554C134.155 64.6394 134.086 64.482 134.086 64.318C134.09 64.1549 134.159 63.9994 134.28 63.884C134.402 63.7687 134.565 63.7025 134.737 63.6993H196.66C196.833 63.6993 196.999 63.7645 197.121 63.8805C197.243 63.9965 197.311 64.1539 197.311 64.318C197.311 64.482 197.243 64.6394 197.121 64.7554C196.999 64.8714 196.833 64.9366 196.66 64.9366Z" fill="#363732"/>
<path d="M196.66 69.1185H134.737C134.564 69.1185 134.399 69.0533 134.277 68.9373C134.155 68.8212 134.086 68.6639 134.086 68.4998C134.09 68.3368 134.159 68.1812 134.28 68.0659C134.402 67.9506 134.565 67.8844 134.737 67.8812H196.66C196.833 67.8812 196.999 67.9464 197.121 68.0624C197.243 68.1784 197.311 68.3358 197.311 68.4998C197.311 68.6639 197.243 68.8212 197.121 68.9373C196.999 69.0533 196.833 69.1185 196.66 69.1185Z" fill="#363732"/>
<path d="M190.295 73.3498H134.737C134.564 73.3498 134.399 73.2846 134.277 73.1686C134.155 73.0526 134.086 72.8952 134.086 72.7312C134.09 72.5681 134.159 72.4126 134.28 72.2972C134.402 72.1819 134.565 72.1157 134.737 72.1125H190.295C190.466 72.1157 190.63 72.1819 190.751 72.2972C190.873 72.4126 190.942 72.5681 190.946 72.7312C190.946 72.8952 190.877 73.0526 190.755 73.1686C190.633 73.2846 190.468 73.3498 190.295 73.3498Z" fill="#363732"/>
<path d="M121.082 17.2039C121.959 17.2039 122.67 16.5281 122.67 15.6945C122.67 14.8608 121.959 14.185 121.082 14.185C120.205 14.185 119.494 14.8608 119.494 15.6945C119.494 16.5281 120.205 17.2039 121.082 17.2039Z" fill="#19F18A"/>
<path d="M126.679 17.2039C127.556 17.2039 128.268 16.5281 128.268 15.6945C128.268 14.8608 127.556 14.185 126.679 14.185C125.802 14.185 125.091 14.8608 125.091 15.6945C125.091 16.5281 125.802 17.2039 126.679 17.2039Z" fill="#363732"/>
<path d="M132.277 17.2039C133.154 17.2039 133.865 16.5281 133.865 15.6945C133.865 14.8608 133.154 14.185 132.277 14.185C131.4 14.185 130.689 14.8608 130.689 15.6945C130.689 16.5281 131.4 17.2039 132.277 17.2039Z" fill="#363732"/>
<path d="M233.695 14.4201H367.695V164.72C367.695 166.361 367.009 167.934 365.788 169.094C364.568 170.254 362.912 170.906 361.186 170.906H240.19C238.464 170.906 236.809 170.254 235.588 169.094C234.367 167.934 233.682 166.361 233.682 164.72V14.4201H233.695Z" fill="white"/>
<path d="M361.186 171.525H240.125C238.229 171.521 236.411 170.803 235.071 169.527C233.731 168.251 232.979 166.523 232.979 164.72V14.4201C232.979 14.256 233.047 14.0987 233.169 13.9827C233.291 13.8667 233.457 13.8015 233.63 13.8015H367.695C367.867 13.8015 368.033 13.8667 368.155 13.9827C368.277 14.0987 368.346 14.256 368.346 14.4201V164.72C368.342 166.524 367.587 168.253 366.245 169.528C364.903 170.803 363.084 171.521 361.186 171.525ZM234.345 15.0387V164.745C234.345 166.219 234.961 167.633 236.057 168.677C237.152 169.721 238.639 170.309 240.19 170.312H361.251C362.804 170.309 364.292 169.721 365.389 168.678C366.487 167.635 367.105 166.22 367.109 164.745V15.0387H234.345Z" fill="#363732"/>
<path d="M340.371 158.521H260.966C259.297 158.508 257.699 157.874 256.517 156.755C255.334 155.635 254.66 154.119 254.639 152.533V148.945C254.643 147.341 255.315 145.805 256.508 144.671C257.701 143.537 259.318 142.898 261.005 142.895H340.41C342.099 142.895 343.718 143.532 344.912 144.667C346.105 145.802 346.776 147.34 346.776 148.945V152.533C346.759 154.133 346.075 155.662 344.875 156.784C343.674 157.907 342.055 158.531 340.371 158.521ZM260.966 144.132C259.63 144.142 258.352 144.653 257.41 145.555C256.469 146.456 255.941 147.675 255.941 148.945V152.533C255.945 153.807 256.48 155.028 257.429 155.928C258.378 156.828 259.664 157.334 261.005 157.334H340.41C341.751 157.334 343.037 156.828 343.986 155.928C344.936 155.028 345.471 153.807 345.474 152.533V148.945C345.474 147.669 344.941 146.444 343.991 145.542C343.041 144.639 341.753 144.132 340.41 144.132H260.966Z" fill="#EF626C"/>
<path d="M263.478 55.6078H252.856V128.37H263.478V55.6078Z" fill="url(#paint4_linear)"/>
<path d="M283.082 72.6446H272.46V128.357H283.082V72.6446Z" fill="url(#paint5_linear)"/>
<path d="M302.673 61.5465H292.051V128.37H302.673V61.5465Z" fill="url(#paint6_linear)"/>
<path d="M322.277 81.6764H311.655V128.357H322.277V81.6764Z" fill="url(#paint7_linear)"/>
<path d="M341.881 61.5465H331.259V128.37H341.881V61.5465Z" fill="url(#paint8_linear)"/>
<path d="M341.634 27.572H323.631C323.458 27.572 323.293 27.5068 323.171 27.3908C323.049 27.2748 322.98 27.1174 322.98 26.9533C322.98 26.7893 323.049 26.6319 323.171 26.5159C323.293 26.3999 323.458 26.3347 323.631 26.3347H341.608C341.78 26.3379 341.943 26.4041 342.065 26.5194C342.186 26.6347 342.256 26.7903 342.259 26.9533C342.259 27.1132 342.194 27.2669 342.078 27.3822C341.961 27.4976 341.802 27.5656 341.634 27.572Z" fill="#231F20"/>
<path d="M335.347 33.9437H323.631C323.458 33.9437 323.293 33.8786 323.171 33.7626C323.049 33.6465 322.98 33.4892 322.98 33.3251C322.98 33.1611 323.049 33.0037 323.171 32.8877C323.293 32.7717 323.458 32.7065 323.631 32.7065H335.347C335.519 32.7065 335.685 32.7717 335.807 32.8877C335.929 33.0037 335.997 33.1611 335.997 33.3251C335.997 33.4892 335.929 33.6465 335.807 33.7626C335.685 33.8786 335.519 33.9437 335.347 33.9437Z" fill="#231F20"/>
<path d="M318.281 62.3012C312.605 62.3012 307.659 56.2883 303.676 51.4383C301.072 48.2957 298.638 45.2521 297.011 45.2521C295.162 45.2521 292.611 46.6997 289.916 48.1844C286.245 50.2011 282.106 52.4899 278.201 52.2796C270.898 51.9084 257.178 36.5914 256.605 35.9357C256.551 35.8776 256.51 35.8098 256.484 35.7364C256.458 35.663 256.448 35.5854 256.454 35.5082C256.46 35.431 256.482 35.3557 256.52 35.2868C256.557 35.2178 256.608 35.1566 256.67 35.1067C256.789 34.9979 256.948 34.937 257.113 34.937C257.278 34.937 257.436 34.9979 257.555 35.1067C257.685 35.2676 271.497 50.6959 278.266 51.0424C281.833 51.2403 285.816 49.038 289.331 47.0956C292.168 45.5367 294.85 44.0643 297.011 44.0025C299.172 43.9406 301.684 46.8729 304.73 50.597C308.635 55.3356 313.452 61.2248 318.672 60.9898C323.189 60.7794 325.349 57.043 327.64 53.0838C329.931 49.1247 332.105 45.3387 336.674 44.5098C336.829 44.4981 336.982 44.5414 337.105 44.6312C337.228 44.7211 337.311 44.8511 337.339 44.9961C337.366 45.141 337.336 45.2905 337.254 45.4156C337.173 45.5406 337.045 45.6323 336.896 45.6728C332.912 46.3904 330.882 49.9165 328.721 53.6529C326.378 57.7235 323.943 61.9301 318.737 62.1775L318.281 62.3012Z" fill="#363732"/>
<path d="M350.967 128.951H244.226C244.144 128.951 244.064 128.936 243.988 128.906C243.913 128.876 243.845 128.832 243.788 128.777C243.731 128.721 243.687 128.656 243.657 128.584C243.627 128.512 243.612 128.435 243.614 128.357C243.62 128.206 243.687 128.063 243.801 127.958C243.915 127.852 244.067 127.791 244.226 127.788H350.967C351.133 127.788 351.292 127.851 351.409 127.962C351.526 128.074 351.592 128.225 351.592 128.382C351.591 128.459 351.573 128.534 351.541 128.604C351.508 128.674 351.462 128.737 351.404 128.79C351.346 128.843 351.278 128.884 351.203 128.912C351.128 128.94 351.048 128.953 350.967 128.951Z" fill="#D1D3D4"/>
<path d="M257.243 37.8287C256.769 37.8287 256.306 37.6952 255.912 37.445C255.518 37.1949 255.211 36.8393 255.03 36.4234C254.849 36.0074 254.801 35.5496 254.894 35.108C254.986 34.6664 255.214 34.2608 255.549 33.9424C255.884 33.624 256.311 33.4072 256.776 33.3194C257.24 33.2315 257.722 33.2766 258.16 33.4489C258.597 33.6212 258.971 33.913 259.234 34.2874C259.498 34.6618 259.638 35.1019 259.638 35.5522C259.638 36.1559 259.386 36.735 258.937 37.1619C258.487 37.5888 257.878 37.8287 257.243 37.8287ZM257.243 34.4634C257.013 34.4634 256.789 34.5283 256.598 34.6499C256.407 34.7714 256.259 34.9441 256.171 35.1461C256.084 35.348 256.062 35.57 256.108 35.784C256.153 35.9979 256.265 36.1941 256.428 36.3476C256.592 36.5011 256.799 36.6049 257.025 36.646C257.251 36.6871 257.484 36.6635 257.695 36.5783C257.907 36.493 258.087 36.35 258.213 36.1673C258.338 35.9846 258.404 35.7705 258.402 35.5522C258.402 35.4081 258.371 35.2655 258.313 35.1326C258.255 34.9997 258.169 34.8791 258.061 34.7779C257.954 34.6766 257.826 34.5967 257.685 34.5427C257.545 34.4887 257.394 34.4618 257.243 34.4634Z" fill="#363732"/>
<path d="M336.648 47.4915C336.175 47.4891 335.713 47.3535 335.321 47.1019C334.929 46.8502 334.624 46.4938 334.445 46.0776C334.266 45.6615 334.22 45.2041 334.314 44.7633C334.408 44.3225 334.637 43.9181 334.972 43.6009C335.308 43.2838 335.735 43.0682 336.199 42.9814C336.663 42.8945 337.144 42.9403 337.581 43.113C338.018 43.2856 338.391 43.5774 338.654 43.9515C338.916 44.3256 339.057 44.7653 339.057 45.215C339.053 45.8199 338.798 46.3989 338.347 46.8255C337.895 47.2521 337.285 47.4915 336.648 47.4915ZM336.648 44.1139C336.419 44.1139 336.195 44.1784 336.005 44.2994C335.814 44.4204 335.666 44.5924 335.578 44.7936C335.49 44.9948 335.467 45.2162 335.512 45.4298C335.557 45.6434 335.667 45.8396 335.829 45.9936C335.991 46.1476 336.198 46.2525 336.422 46.295C336.647 46.3375 336.88 46.3157 337.092 46.2323C337.303 46.149 337.484 46.0078 337.612 45.8268C337.739 45.6457 337.807 45.4328 337.807 45.215C337.807 44.923 337.685 44.6429 337.468 44.4364C337.25 44.2299 336.956 44.1139 336.648 44.1139Z" fill="#363732"/>
<path d="M240.19 1.58995H361.186C362.912 1.58995 364.568 2.24171 365.788 3.40185C367.009 4.56199 367.695 6.13547 367.695 7.77615V14.3954H233.695V7.77615C233.695 6.13761 234.379 4.566 235.596 3.40622C236.814 2.24644 238.466 1.59323 240.19 1.58995Z" fill="white"/>
<path d="M367.695 15.0387H233.695C233.522 15.0387 233.356 14.9736 233.234 14.8575C233.112 14.7415 233.044 14.5842 233.044 14.4201V7.77615C233.044 5.97354 233.796 4.24458 235.136 2.96879C236.476 1.69299 238.294 0.97461 240.19 0.971333H361.251C363.149 0.974603 364.968 1.69259 366.31 2.96803C367.652 4.24347 368.407 5.9724 368.411 7.77615V14.3954C368.415 14.4841 368.399 14.5727 368.364 14.6551C368.329 14.7375 368.275 14.8118 368.208 14.8728C368.14 14.9339 368.059 14.9803 367.97 15.0089C367.882 15.0375 367.788 15.0477 367.695 15.0387ZM234.345 13.8015H367.044V7.77615C367.04 6.30054 366.422 4.8863 365.324 3.84289C364.226 2.79947 362.738 2.21184 361.186 2.20857H240.125C238.574 2.21185 237.087 2.79987 235.991 3.84364C234.896 4.88741 234.28 6.30167 234.28 7.77615L234.345 13.8015Z" fill="#231F20"/>
<path d="M95.4249 78.0884H5.77469C3.13623 78.0884 0.997345 80.1213 0.997345 82.6291V189.403C0.997345 191.911 3.13623 193.943 5.77469 193.943H95.4249C98.0633 193.943 100.202 191.911 100.202 189.403V82.6291C100.202 80.1213 98.0633 78.0884 95.4249 78.0884Z" fill="white"/>
<path d="M95.4248 194.599H5.77468C4.33503 194.599 2.95434 194.056 1.93635 193.088C0.918363 192.121 0.346466 190.808 0.346466 189.44V82.6291C0.349904 81.2617 0.922906 79.9514 1.94015 78.9845C2.95739 78.0177 4.33608 77.473 5.77468 77.4698H95.4248C96.8634 77.473 98.2421 78.0177 99.2593 78.9845C100.277 79.9514 100.85 81.2617 100.853 82.6291V189.403C100.858 190.083 100.722 190.758 100.451 191.389C100.181 192.019 99.7816 192.592 99.277 193.075C98.7725 193.558 98.1723 193.941 97.5112 194.203C96.85 194.465 96.141 194.599 95.4248 194.599ZM5.77468 78.707C4.68132 78.7103 3.63373 79.1245 2.86061 79.8594C2.08748 80.5942 1.65163 81.5899 1.6482 82.6291V189.403C1.64304 189.921 1.74596 190.435 1.95102 190.915C2.15609 191.395 2.45923 191.832 2.84292 192.2C3.22661 192.568 3.68326 192.86 4.18647 193.06C4.68968 193.259 5.22948 193.362 5.77468 193.362H95.4248C96.5192 193.362 97.5688 192.949 98.3427 192.213C99.1166 191.478 99.5513 190.48 99.5513 189.44V82.6291C99.5479 81.5899 99.112 80.5942 98.3389 79.8594C97.5658 79.1245 96.5182 78.7103 95.4248 78.707H5.77468Z" fill="#363732"/>
<path d="M75.196 169.471H21.7339C21.5613 169.471 21.3958 169.406 21.2737 169.29C21.1516 169.174 21.0831 169.016 21.0831 168.852C21.0864 168.689 21.156 168.534 21.2774 168.418C21.3987 168.303 21.5624 168.237 21.7339 168.234H75.196C75.3686 168.234 75.5341 168.299 75.6562 168.415C75.7783 168.531 75.8468 168.688 75.8468 168.852C75.8468 169.016 75.7783 169.174 75.6562 169.29C75.5341 169.406 75.3686 169.471 75.196 169.471Z" fill="#363732"/>
<path d="M49.3827 177.773H21.7339C21.5624 177.77 21.3987 177.703 21.2774 177.588C21.156 177.473 21.0864 177.317 21.0831 177.154C21.0831 176.99 21.1516 176.833 21.2737 176.717C21.3958 176.601 21.5613 176.535 21.7339 176.535H49.3827C49.5553 176.535 49.7208 176.601 49.8429 176.717C49.965 176.833 50.0335 176.99 50.0335 177.154C50.0302 177.317 49.9606 177.473 49.8392 177.588C49.7179 177.703 49.5542 177.77 49.3827 177.773Z" fill="#363732"/>
<path d="M25.0403 104.169C32.8507 111.593 40.6307 118.992 48.3803 126.365C48.4989 126.488 48.6442 126.585 48.806 126.649C48.9678 126.713 49.1424 126.743 49.3176 126.737H85.0761C84.8802 131.986 83.3595 137.115 80.6421 141.689C77.9248 146.263 74.0904 150.15 69.462 153.021C64.8337 155.892 59.5471 157.664 54.0476 158.187C48.5481 158.71 42.997 157.968 37.862 156.026C32.7269 154.083 28.1584 150.995 24.5415 147.023C20.9245 143.051 18.3651 138.311 17.0789 133.202C15.7926 128.094 15.8173 122.766 17.1507 117.668C18.4842 112.57 21.0873 107.851 24.7409 103.91L25.0403 104.169Z" fill="url(#paint9_linear)"/>
<path d="M84.4111 123.824L52.3429 123.898V93.2923L53.3121 93.3717L53.313 93.3718C57.1088 93.6761 60.8257 94.5707 64.3155 96.0194C70.0316 98.4378 74.9394 102.295 78.5096 107.17C82.08 112.046 84.1773 117.754 84.5772 123.677L84.5775 123.682C84.5816 123.735 84.5852 123.782 84.5881 123.823C84.5373 123.824 84.4797 123.824 84.4122 123.824L84.4111 123.824Z" stroke="#363732"/>
<path d="M38.2435 95.5077C41.6557 94.2752 45.2414 93.5324 48.8826 93.3033V122.813L27.1682 102.186C30.3816 99.3183 34.1389 97.0516 38.2435 95.5077Z" stroke="#363732"/>
<path d="M152.714 107.126C145.047 104.937 140.998 96.4119 138.955 89.6319C136.664 81.9239 133.969 75.6139 137.236 67.5843C137.978 65.7408 139.176 63.8725 141.142 63.2787C141.632 63.2115 142.105 63.0561 142.534 62.8209C142.876 62.5001 143.131 62.1052 143.276 61.6703C147.937 51.228 161.123 50.9434 171.016 52.4157C176.744 53.2694 184.177 55.7563 185.96 61.3486C189.227 71.6548 186.468 82.8642 180.454 91.7723C174.83 100.148 164.195 110.467 152.714 107.126Z" fill="white"/>
<path d="M157.101 108.364C155.552 108.367 154.012 108.151 152.532 107.72C144.526 105.431 140.387 96.7212 138.33 89.8051C138.069 88.9266 137.809 88.0606 137.536 87.2069C135.453 80.4887 133.631 74.6736 136.625 67.411C137.679 64.8005 139.163 63.2292 140.998 62.7343L141.389 62.6477C141.707 62.6502 142.015 62.5422 142.254 62.3439C142.494 62.1456 142.649 61.8708 142.691 61.5713C147.546 50.7331 160.915 50.3124 171.172 51.859C175.078 52.4405 184.528 54.5314 186.65 61.2248C189.748 71.0238 187.717 82.2579 181.066 92.1558C175.429 100.408 166.551 108.364 157.101 108.364ZM162.88 52.391C155.07 52.391 147.26 54.4943 143.914 61.9053C143.74 62.443 143.416 62.9259 142.977 63.3034C142.589 63.5623 142.144 63.7318 141.675 63.7983L141.35 63.8849C139.931 64.2561 138.746 65.5799 137.835 67.807C135.023 74.7231 136.768 80.3526 138.785 86.8604C139.059 87.7141 139.319 88.5802 139.592 89.471C141.558 96.0779 145.463 104.417 152.909 106.545C163.323 109.502 173.737 100.68 179.946 91.4382C186.39 81.8867 188.368 70.9867 185.374 61.5218C183.461 55.5088 174.648 53.5787 170.951 53.0343C168.282 52.6225 165.584 52.4074 162.88 52.391Z" fill="#231F20"/>
<path d="M187.548 86.2666C187.548 86.2666 195.762 96.0284 194.473 98.3173C193.185 100.606 188.082 99.5545 188.082 99.5545" fill="white"/>
<path d="M190.516 100.458C189.642 100.459 188.77 100.376 187.913 100.21C187.74 100.177 187.588 100.081 187.491 99.9416C187.393 99.8024 187.358 99.632 187.392 99.4679C187.427 99.3038 187.528 99.1595 187.675 99.0667C187.821 98.9739 188 98.9402 188.173 98.973C189.475 99.2205 193.003 99.5421 193.862 98.008C194.539 96.7707 190.816 91.166 187.002 86.6254C186.893 86.4967 186.842 86.3327 186.859 86.1685C186.876 86.0043 186.96 85.853 187.093 85.7469C187.231 85.6481 187.404 85.6033 187.576 85.6217C187.747 85.6401 187.905 85.7203 188.017 85.8459C190.009 88.2214 196.4 96.1274 195.007 98.5895C194.2 100.111 192.156 100.458 190.516 100.458Z" fill="#231F20"/>
<path d="M184.684 72.6569C189.631 75.8243 189.019 83.4951 189.449 88.407C190.048 95.3108 190.482 102.231 190.751 109.168C190.92 113.56 179.035 114.686 176.783 113.56L180.298 130.696L154.406 123.718L153.3 103.687C153.3 103.687 161.11 103.056 165.015 93.789C168.921 84.522 167.319 70.7763 167.319 70.7763C167.319 70.7763 179.855 69.5515 184.684 72.6569Z" fill="white"/>
<path d="M180.298 131.314H180.115L154.198 124.336C154.067 124.303 153.949 124.231 153.863 124.132C153.777 124.032 153.725 123.909 153.716 123.78L152.61 103.736C152.602 103.578 152.659 103.423 152.768 103.304C152.877 103.184 153.03 103.109 153.196 103.093C153.508 103.093 160.733 102.363 164.338 93.5415C168.048 84.4602 166.616 70.9495 166.603 70.8135C166.593 70.6496 166.643 70.4873 166.747 70.3557C166.801 70.2926 166.869 70.2405 166.944 70.2023C167.02 70.164 167.104 70.1405 167.189 70.133C167.71 70.133 180.089 68.9823 185.049 72.162C189.436 74.9829 189.709 80.9217 189.93 85.7717C189.93 86.712 190.022 87.6151 190.1 88.4441C190.698 95.3479 191.141 102.338 191.401 109.23C191.396 109.929 191.183 110.612 190.786 111.2C190.39 111.789 189.827 112.26 189.162 112.558C186.129 114.364 180.402 114.97 177.616 114.525L180.935 130.609C180.956 130.714 180.949 130.822 180.915 130.923C180.881 131.025 180.821 131.117 180.74 131.191C180.611 131.277 180.455 131.321 180.298 131.314ZM154.992 123.248L179.452 129.83L176.145 113.684C176.117 113.569 176.126 113.449 176.17 113.339C176.214 113.229 176.291 113.133 176.392 113.065C176.496 113.005 176.616 112.973 176.737 112.973C176.859 112.973 176.978 113.005 177.082 113.065C178.527 113.795 185.218 113.412 188.473 111.481C189.592 110.813 190.139 110.059 190.1 109.242C189.839 102.363 189.397 95.385 188.798 88.506C188.72 87.6646 188.681 86.7491 188.629 85.784C188.42 81.2805 188.16 75.6758 184.32 73.2137C180.415 70.665 170.561 71.1599 167.957 71.3331C168.205 74.1664 168.96 85.6851 165.549 94.0117C162.138 102.338 155.955 103.91 153.938 104.268L154.992 123.248Z" fill="#363732"/>
<path d="M190.087 104.033C190.087 104.033 182.953 104.033 181.248 94.8777L190.087 104.033Z" fill="white"/>
<path d="M190.087 104.652C190.009 104.652 182.38 104.541 180.597 94.9891C180.57 94.827 180.611 94.6614 180.711 94.5275C180.81 94.3935 180.961 94.3017 181.131 94.2715C181.3 94.2426 181.474 94.2784 181.616 94.3711C181.757 94.4638 181.854 94.6059 181.886 94.7664C183.461 103.279 189.826 103.427 190.087 103.427C190.259 103.427 190.425 103.492 190.547 103.608C190.669 103.724 190.738 103.882 190.738 104.046C190.734 104.208 190.664 104.362 190.542 104.475C190.421 104.588 190.257 104.652 190.087 104.652Z" fill="#231F20"/>
<path d="M174.036 91.9084C173.665 90.2019 172.805 88.6262 171.55 87.3553C170.727 86.2526 169.735 85.2727 168.608 84.4478C168.043 84.0377 167.388 83.7526 166.693 83.6135C165.997 83.4744 165.277 83.4847 164.586 83.6436C164 83.8462 163.466 84.1635 163.017 84.5748C162.569 84.9862 162.216 85.4824 161.982 86.0315C161.515 87.1424 161.314 88.3388 161.397 89.5329C161.519 92.1439 162.365 94.6777 163.849 96.8784C165.332 99.0791 167.401 100.869 169.845 102.066L169.415 101.683" fill="white"/>
<path d="M169.806 102.66C169.705 102.658 169.607 102.633 169.519 102.586C166.979 101.331 164.828 99.466 163.282 97.1759C161.736 94.8858 160.848 92.2507 160.707 89.5329C160.627 88.266 160.845 86.9981 161.344 85.8212C161.621 85.1852 162.037 84.6125 162.564 84.1411C163.092 83.6697 163.719 83.3103 164.404 83.0869C165.189 82.8987 166.008 82.881 166.802 83.0352C167.595 83.1895 168.341 83.5116 168.986 83.9777C170.167 84.8325 171.203 85.8549 172.058 87.0089C173.39 88.3693 174.292 90.0587 174.661 91.8837C174.679 92.046 174.629 92.2086 174.522 92.336C174.415 92.4635 174.259 92.5455 174.088 92.5641C173.918 92.5815 173.747 92.5341 173.612 92.4321C173.478 92.3301 173.392 92.1819 173.372 92.0197C173.006 90.4249 172.191 88.9542 171.016 87.7637C170.236 86.7152 169.297 85.7814 168.231 84.9922C167.745 84.6365 167.183 84.3875 166.584 84.2634C165.985 84.1393 165.365 84.1432 164.768 84.2746C164.263 84.4475 163.803 84.7198 163.417 85.0738C163.031 85.4278 162.729 85.8554 162.529 86.3285C162.098 87.3531 161.916 88.4568 161.995 89.5576C162.12 91.9015 162.847 94.1805 164.113 96.1951C165.38 98.2098 167.146 99.8985 169.259 101.113C169.354 101.095 169.452 101.099 169.545 101.125C169.638 101.151 169.723 101.198 169.793 101.262L170.235 101.633C170.338 101.716 170.411 101.828 170.444 101.952C170.477 102.076 170.468 102.207 170.42 102.326C170.371 102.446 170.285 102.548 170.172 102.619C170.06 102.69 169.927 102.726 169.793 102.722L169.806 102.66Z" fill="#231F20"/>
<path d="M176.783 113.56C176.783 113.56 170.418 112.323 167.163 108.487C167.163 108.487 168.309 117.643 178.072 119.87L176.783 113.56Z" fill="#231F20"/>
<path d="M178.072 120.489H177.915C167.827 118.2 166.525 108.685 166.512 108.586C166.495 108.453 166.524 108.319 166.595 108.203C166.665 108.087 166.773 107.996 166.903 107.943C167.031 107.889 167.175 107.876 167.311 107.908C167.448 107.939 167.57 108.012 167.658 108.116C170.743 111.692 176.848 112.966 176.913 112.979C177.04 113.004 177.156 113.064 177.246 113.152C177.337 113.24 177.398 113.352 177.421 113.473L178.723 119.771C178.742 119.861 178.74 119.954 178.717 120.043C178.694 120.132 178.65 120.215 178.589 120.286C178.528 120.357 178.451 120.414 178.364 120.454C178.277 120.493 178.181 120.513 178.085 120.513L178.072 120.489ZM168.309 110.442C168.942 112.457 170.088 114.292 171.646 115.785C173.204 117.279 175.124 118.384 177.239 119.004L176.223 114.055C173.353 113.39 170.658 112.169 168.309 110.467V110.442Z" fill="#363732"/>
<path d="M183.984 81.9227C184.095 80.5602 183.725 79.4219 183.159 79.3803C182.593 79.3387 182.044 80.4095 181.933 81.7721C181.822 83.1346 182.192 84.2729 182.758 84.3145C183.324 84.3561 183.873 83.2853 183.984 81.9227Z" fill="#231F20"/>
<path d="M115.211 164.707L101.855 186.978L67.0732 153.053C67.0732 153.053 69.8849 138.639 66.1359 139.789C63.7673 140.591 61.7078 142.053 60.2261 143.984C60.2261 143.984 57.141 124.188 49.0182 130.696C40.8954 137.204 44.6314 148.636 50.7885 159.622C55.3576 167.776 95.9586 227.25 107.219 224.862C118.478 222.474 145.216 168.456 145.216 168.456L115.211 164.707Z" fill="white"/>
<path d="M106.594 225.53C93.7977 225.53 54.2902 167.182 50.2158 159.956C45.0869 150.789 39.3333 137.686 48.6016 130.263C50.3199 128.877 51.9861 128.456 53.5612 129.025C57.8309 130.56 59.9397 139.183 60.6166 142.635C62.06 141.106 63.8936 139.955 65.9407 139.295C66.2169 139.192 66.5178 139.164 66.8097 139.214C67.1016 139.264 67.3731 139.391 67.5939 139.579C69.7677 141.398 68.2447 150.417 67.7761 152.941L101.712 185.938L114.651 164.373C114.715 164.266 114.811 164.179 114.927 164.124C115.043 164.069 115.174 164.048 115.302 164.064L145.242 167.776C145.344 167.788 145.441 167.823 145.525 167.879C145.609 167.935 145.677 168.01 145.724 168.097C145.769 168.184 145.792 168.279 145.792 168.376C145.792 168.472 145.769 168.568 145.724 168.654C144.617 170.869 118.7 222.981 107.271 225.394C107.05 225.46 106.823 225.505 106.594 225.53ZM52.1684 129.978C51.1315 130.069 50.1626 130.508 49.4347 131.215C42.9261 136.461 43.5379 145.419 51.3743 159.387C56.3339 168.246 96.6224 226.508 107.075 224.318C117.177 222.177 140.92 175.595 144.253 169.013L115.615 165.425L102.467 187.337C102.417 187.419 102.347 187.49 102.264 187.544C102.18 187.598 102.085 187.632 101.986 187.646C101.885 187.659 101.783 187.649 101.688 187.617C101.593 187.585 101.507 187.531 101.439 187.46L66.6566 153.535C66.5856 153.463 66.5333 153.377 66.504 153.282C66.4746 153.188 66.4689 153.088 66.4874 152.991C67.3726 148.425 68.0625 141.534 66.7868 140.47C66.7868 140.47 66.6436 140.359 66.3832 140.47C64.158 141.236 62.22 142.609 60.8118 144.417C60.736 144.519 60.6302 144.598 60.5077 144.645C60.3851 144.691 60.2511 144.702 60.1219 144.677C59.9957 144.648 59.8812 144.585 59.793 144.495C59.7049 144.404 59.6472 144.291 59.6273 144.169C59.0936 140.742 56.9067 131.574 53.1186 130.238C52.8222 130.094 52.4997 130.006 52.1684 129.978Z" fill="#363732"/>
<path d="M216.954 154.723C216.954 154.723 243.874 148.091 253.962 142.462C265.027 136.276 285.868 97.2038 292.637 87.4914C296.311 82.1281 299.041 76.2318 300.721 70.034C301.502 67.2626 301.866 65.2583 300.408 62.6106C300.109 62.0538 295.331 57.0801 295.11 57.6616C296.412 54.185 297.714 50.8815 299.093 47.442C299.458 46.4893 299.731 45.2892 298.963 44.5964C298.627 44.3465 298.212 44.2108 297.785 44.2108C297.358 44.2108 296.944 44.3465 296.607 44.5964C295.928 45.0909 295.376 45.7254 294.993 46.4522L283.928 64.6891C284.017 62.4373 283.54 60.1978 282.535 58.1565C282.377 57.7468 282.091 57.3928 281.715 57.142C280.505 56.4986 279.333 58.0699 278.956 59.3319C276.99 65.914 278.409 73.8447 274.165 79.6721C270.937 84.1014 242.26 116.789 242.26 116.789L216.954 122.975" fill="white"/>
<path d="M216.954 155.342C216.782 155.363 216.607 155.318 216.469 155.217C216.331 155.116 216.241 154.967 216.219 154.803C216.196 154.639 216.243 154.473 216.35 154.342C216.456 154.211 216.612 154.126 216.785 154.104C217.058 154.042 243.744 147.448 253.637 141.918C261.643 137.439 275.246 114.785 284.254 99.7896C287.508 94.3828 290.307 89.7061 292.064 87.145C295.694 81.8204 298.389 75.9703 300.044 69.8237C300.786 67.2255 301.176 65.3325 299.783 62.7961C298.391 61.1371 296.84 59.6046 295.149 58.2184C295.055 58.2367 294.957 58.2367 294.863 58.2184C294.7 58.1623 294.567 58.0482 294.492 57.9003C294.417 57.7524 294.405 57.5825 294.459 57.4265C295.253 55.1995 296.139 53.0096 296.985 50.8815C297.479 49.6443 297.961 48.4071 298.443 47.1698C298.924 45.9326 298.885 45.3511 298.443 44.9923C298.219 44.8346 297.947 44.7494 297.668 44.7494C297.389 44.7494 297.118 44.8346 296.894 44.9923C296.31 45.4511 295.84 46.0254 295.514 46.6749L284.41 64.9489C284.339 65.0697 284.227 65.1638 284.092 65.2155C283.957 65.2673 283.807 65.2736 283.668 65.2335C283.556 65.187 283.459 65.1111 283.39 65.0148C283.321 64.9185 283.282 64.8056 283.278 64.6891C283.353 62.5591 282.908 60.4415 281.976 58.5029C281.866 58.2141 281.672 57.9609 281.416 57.773C281.345 57.7339 281.264 57.7133 281.182 57.7133C281.099 57.7133 281.019 57.7339 280.947 57.773C280.282 58.2071 279.816 58.8666 279.646 59.6164C278.976 62.1322 278.54 64.699 278.344 67.2873C277.914 71.7414 277.459 76.3563 274.699 80.1299C271.497 84.5468 243.926 115.911 242.755 117.247C242.667 117.346 242.549 117.416 242.416 117.445L217.111 123.631C216.943 123.669 216.767 123.644 216.619 123.561C216.471 123.478 216.362 123.343 216.316 123.186C216.295 123.107 216.29 123.025 216.302 122.944C216.314 122.864 216.342 122.786 216.386 122.716C216.429 122.646 216.487 122.585 216.556 122.536C216.624 122.487 216.702 122.451 216.785 122.431L241.896 116.245C244.017 113.77 270.534 83.5817 273.632 79.3751C276.235 75.8614 276.626 71.4073 277.055 67.1141C277.237 64.4468 277.672 61.8006 278.357 59.2081C278.494 58.653 278.752 58.131 279.112 57.6752C279.473 57.2195 279.93 56.8399 280.453 56.5605C280.709 56.4569 280.988 56.4119 281.266 56.4291C281.544 56.4463 281.814 56.5252 282.054 56.6594C282.554 56.9439 282.939 57.3796 283.147 57.8967C283.866 59.3578 284.328 60.9209 284.514 62.5239L294.459 46.1305C294.895 45.3126 295.523 44.6012 296.295 44.052C296.759 43.7294 297.322 43.5618 297.896 43.5752C298.471 43.5886 299.024 43.7824 299.471 44.1262C300.278 44.8562 300.382 46.0439 299.757 47.64C299.276 48.8772 298.781 50.1144 298.286 51.3517C297.518 53.2818 296.724 55.2737 295.982 57.2904C297.859 58.7514 299.554 60.4119 301.033 62.2394C302.634 65.1593 302.192 67.3615 301.398 70.1577C299.697 76.4152 296.941 82.3693 293.236 87.7884C291.465 90.3247 288.68 94.9767 285.425 100.359C275.806 116.369 262.645 138.305 254.327 142.944C244.291 148.562 218.256 154.995 217.15 155.317L216.954 155.342Z" fill="#231F20"/>
<path d="M223.398 261.41L214.976 225.011L130.975 246.427C130.975 246.427 131.144 252.403 131.379 261.385L223.398 261.41Z" fill="#363732"/>
<path d="M240.32 114.179C240.32 114.179 144.747 112.261 132.615 128.568C123.174 142.1 115.267 156.545 109.028 171.661L126.211 186.928C126.135 208.521 127.291 230.101 129.673 251.574C159.288 256.523 220.638 234.005 220.118 233.783L212.307 158.311L248.886 147.572L240.32 114.179Z" fill="url(#paint10_linear)"/>
<path d="M125.091 181.262C125.006 181.259 124.922 181.239 124.844 181.205C124.766 181.171 124.697 181.123 124.638 181.063C124.58 181.003 124.535 180.933 124.506 180.857C124.476 180.781 124.463 180.7 124.466 180.618C124.466 179.257 125.599 147.052 130.246 135.793C130.276 135.717 130.322 135.647 130.382 135.587C130.441 135.528 130.512 135.481 130.591 135.448C130.67 135.416 130.756 135.399 130.842 135.399C130.928 135.399 131.013 135.415 131.092 135.447C131.172 135.474 131.246 135.517 131.308 135.572C131.37 135.627 131.42 135.694 131.454 135.768C131.488 135.842 131.506 135.922 131.507 136.003C131.507 136.084 131.49 136.164 131.457 136.239C126.901 147.3 125.781 180.334 125.768 180.656C125.761 180.821 125.687 180.977 125.56 181.09C125.433 181.204 125.265 181.265 125.091 181.262Z" fill="#363732"/>
<path d="M199.225 162.171C199.083 162.173 198.945 162.131 198.832 162.05C198.719 161.969 198.637 161.855 198.6 161.726C198.556 161.567 198.579 161.397 198.664 161.254C198.749 161.111 198.889 161.005 199.056 160.959L226.066 153.659C226.239 153.613 226.424 153.634 226.58 153.718C226.736 153.801 226.851 153.94 226.9 154.104C226.948 154.268 226.926 154.444 226.838 154.593C226.75 154.741 226.604 154.85 226.431 154.896L199.407 162.196C199.345 162.2 199.283 162.191 199.225 162.171Z" fill="#363732"/>
<path d="M304.821 248.84H257.581C256.926 248.841 256.277 248.72 255.671 248.482C255.066 248.245 254.515 247.896 254.052 247.455C253.589 247.015 253.222 246.492 252.972 245.916C252.722 245.341 252.594 244.724 252.596 244.101V194.5C252.596 193.878 252.725 193.262 252.975 192.687C253.226 192.112 253.593 191.589 254.056 191.149C254.519 190.709 255.069 190.36 255.673 190.122C256.278 189.884 256.927 189.762 257.581 189.762H299.237L309.755 199.511V244.052C309.762 244.674 309.639 245.291 309.395 245.869C309.151 246.446 308.789 246.972 308.331 247.417C307.873 247.862 307.327 248.216 306.725 248.46C306.123 248.704 305.476 248.833 304.821 248.84Z" fill="white"/>
<path d="M304.821 249.458H257.581C256.087 249.458 254.653 248.894 253.596 247.889C252.539 246.885 251.945 245.522 251.945 244.101V194.5C251.948 193.08 252.543 191.72 253.6 190.716C254.656 189.712 256.088 189.146 257.581 189.143H299.237C299.321 189.141 299.405 189.156 299.483 189.185C299.561 189.215 299.633 189.26 299.692 189.316L310.223 199.078C310.345 199.193 310.415 199.348 310.419 199.511V244.052C310.429 245.474 309.846 246.841 308.796 247.855C307.747 248.869 306.317 249.445 304.821 249.458ZM257.581 190.38C256.433 190.383 255.332 190.819 254.52 191.591C253.708 192.362 253.25 193.409 253.247 194.5V244.089C253.247 244.63 253.359 245.166 253.577 245.665C253.794 246.165 254.114 246.619 254.516 247.002C254.919 247.385 255.397 247.688 255.923 247.895C256.449 248.102 257.012 248.209 257.581 248.209H304.821C305.97 248.205 307.07 247.77 307.883 246.998C308.695 246.226 309.153 245.18 309.156 244.089V199.771L299.015 190.38H257.581Z" fill="#363732"/>
<path d="M241.817 10.2506C243.025 10.2506 244.004 9.32002 244.004 8.17207C244.004 7.02411 243.025 6.09351 241.817 6.09351C240.61 6.09351 239.63 7.02411 239.63 8.17207C239.63 9.32002 240.61 10.2506 241.817 10.2506Z" fill="#19F18A"/>
<path d="M249.407 10.2506C250.614 10.2506 251.593 9.32002 251.593 8.17207C251.593 7.02411 250.614 6.09351 249.407 6.09351C248.199 6.09351 247.22 7.02411 247.22 8.17207C247.22 9.32002 248.199 10.2506 249.407 10.2506Z" fill="#363732"/>
<path d="M256.996 10.2506C258.203 10.2506 259.182 9.32002 259.182 8.17207C259.182 7.02411 258.203 6.09351 256.996 6.09351C255.788 6.09351 254.809 7.02411 254.809 8.17207C254.809 9.32002 255.788 10.2506 256.996 10.2506Z" fill="#363732"/>
<path d="M298.898 40.798C298.749 40.7969 298.606 40.7441 298.495 40.6496C298.37 40.5487 298.292 40.4053 298.277 40.2503C298.263 40.0952 298.313 39.941 298.417 39.8206L304.04 33.486C304.099 33.4195 304.173 33.3662 304.256 33.3298C304.339 33.2935 304.43 33.275 304.522 33.2756H318.593C318.766 33.2756 318.931 33.3408 319.054 33.4568C319.176 33.5728 319.244 33.7302 319.244 33.8942C319.244 34.0583 319.176 34.2157 319.054 34.3317C318.931 34.4477 318.766 34.5129 318.593 34.5129H304.782L299.341 40.6991C299.212 40.7837 299.054 40.819 298.898 40.798Z" fill="#363732"/>
<path d="M299.289 189.762V199.808L309.807 199.511L299.289 189.762Z" fill="#19F18A"/>
<path d="M299.276 200.427C299.11 200.426 298.951 200.364 298.833 200.253C298.767 200.197 298.715 200.129 298.679 200.052C298.643 199.975 298.624 199.892 298.625 199.808V189.762C298.627 189.64 298.666 189.521 298.738 189.42C298.81 189.319 298.911 189.24 299.028 189.192C299.145 189.144 299.275 189.13 299.4 189.152C299.525 189.174 299.641 189.231 299.731 189.316L310.262 199.078C310.351 199.164 310.411 199.272 310.436 199.39C310.461 199.508 310.449 199.63 310.402 199.741C310.355 199.853 310.275 199.949 310.172 200.018C310.068 200.087 309.946 200.126 309.82 200.13L299.302 200.427H299.276ZM299.927 191.234V199.177L308.245 198.942L299.927 191.234Z" fill="#231F20"/>
<path d="M71.6162 215.892H58.2474C56.2848 215.892 54.6937 217.404 54.6937 219.27V231.976C54.6937 233.842 56.2848 235.354 58.2474 235.354H71.6162C73.5789 235.354 75.1699 233.842 75.1699 231.976V219.27C75.1699 217.404 73.5789 215.892 71.6162 215.892Z" fill="url(#paint11_linear)"/>
<path d="M68.0885 209.656H54.2771C52.4367 209.656 50.9447 211.074 50.9447 212.824V225.951C50.9447 227.7 52.4367 229.118 54.2771 229.118H68.0885C69.9289 229.118 71.4209 227.7 71.4209 225.951V212.824C71.4209 211.074 69.9289 209.656 68.0885 209.656Z" fill="white"/>
<path d="M68.0885 229.737H54.2772C53.7519 229.74 53.2311 229.644 52.7448 229.456C52.2585 229.267 51.8163 228.989 51.4437 228.637C51.071 228.285 50.7753 227.866 50.5735 227.405C50.3717 226.944 50.2678 226.45 50.2678 225.951V212.824C50.2678 211.82 50.6875 210.857 51.4345 210.147C52.1815 209.437 53.1947 209.038 54.2511 209.038H68.0625C68.5856 209.038 69.1035 209.136 69.5868 209.326C70.0701 209.516 70.5092 209.795 70.8791 210.147C71.249 210.498 71.5424 210.916 71.7426 211.375C71.9427 211.834 72.0458 212.327 72.0458 212.824V225.951C72.0458 226.951 71.6297 227.91 70.8883 228.619C70.1469 229.328 69.1404 229.73 68.0885 229.737ZM54.2772 210.275C53.9228 210.272 53.5713 210.335 53.243 210.462C52.9146 210.588 52.6159 210.776 52.3641 211.013C52.1124 211.25 51.9125 211.532 51.7761 211.843C51.6397 212.153 51.5695 212.487 51.5696 212.824V225.951C51.5696 226.627 51.8521 227.275 52.355 227.753C52.8579 228.231 53.5399 228.499 54.2511 228.499H68.0625C68.7737 228.499 69.4557 228.231 69.9586 227.753C70.4615 227.275 70.744 226.627 70.744 225.951V212.824C70.744 212.148 70.4615 211.499 69.9586 211.021C69.4557 210.544 68.7737 210.275 68.0625 210.275H54.2772Z" fill="#363732"/>
<path d="M278.383 237.766V234.847C277.263 234.55 276.183 234.339 275.129 233.993C273.095 233.388 271.334 232.151 270.13 230.479C269.14 229.003 268.636 227.28 268.685 225.53H274.686C274.725 226.522 275.108 227.474 275.773 228.239C276.439 229.004 277.352 229.539 278.37 229.762V222.016C277.159 221.682 275.962 221.373 274.764 221.014C273.459 220.657 272.263 220.008 271.276 219.121C270.251 218.147 269.573 216.892 269.336 215.533C268.988 213.882 269.119 212.171 269.713 210.584C270.155 209.442 270.857 208.406 271.768 207.55C272.679 206.695 273.778 206.041 274.985 205.635C275.982 205.337 276.994 205.089 278.018 204.893L278.383 204.819V200.785H284.006V201.169C284.006 202.27 284.006 203.384 284.006 204.485C284.006 204.757 284.098 204.844 284.371 204.905C286.283 205.257 288.073 206.057 289.578 207.231C291.18 208.475 292.242 210.238 292.559 212.18C292.663 212.712 292.702 213.257 292.78 213.813H286.675C286.665 213.022 286.414 212.25 285.952 211.591C285.49 210.932 284.837 210.415 284.072 210.102V217.34L284.735 217.488C286.386 217.792 287.994 218.278 289.526 218.936C290.676 219.41 291.669 220.173 292.399 221.143C293.128 222.113 293.566 223.253 293.665 224.441C294.025 226.655 293.459 228.915 292.09 230.739C290.963 232.222 289.381 233.337 287.56 233.931C286.428 234.302 285.256 234.537 284.045 234.859V237.692L278.383 237.766ZM284.019 223.056V229.786C284.934 229.659 285.794 229.295 286.506 228.735C286.873 228.45 287.166 228.09 287.363 227.681C287.56 227.272 287.655 226.825 287.642 226.375C287.628 225.925 287.505 225.485 287.283 225.087C287.062 224.689 286.747 224.346 286.363 224.083C285.608 223.689 284.825 223.346 284.019 223.056ZM278.37 216.164V209.656C277.633 209.963 276.916 210.31 276.222 210.696C275.823 210.966 275.502 211.325 275.285 211.743C275.069 212.16 274.965 212.622 274.983 213.087C275.002 213.552 275.141 214.005 275.389 214.406C275.637 214.807 275.986 215.144 276.404 215.385C277.016 215.694 277.68 215.904 278.37 216.177V216.164Z" fill="url(#paint12_linear)"/>
<path d="M33.0122 59.9207V28.4555H89.3404V59.9207H33.0122Z" fill="#FFFBFA" stroke="#EF626C"/>
<defs>
<linearGradient id="paint0_linear" x1="139.345" y1="31.8652" x2="139.345" y2="44.584" gradientUnits="userSpaceOnUse">
<stop stop-color="#19F18A"/>
<stop offset="1" stop-color="#49C6E5"/>
</linearGradient>
<linearGradient id="paint1_linear" x1="139.352" y1="46.2614" x2="139.352" y2="57.4513" gradientUnits="userSpaceOnUse">
<stop stop-color="#19F18A"/>
<stop offset="1" stop-color="#49C6E5"/>
</linearGradient>
<linearGradient id="paint2_linear" x1="192.052" y1="31.8652" x2="192.052" y2="44.584" gradientUnits="userSpaceOnUse">
<stop stop-color="#19F18A"/>
<stop offset="1" stop-color="#49C6E5"/>
</linearGradient>
<linearGradient id="paint3_linear" x1="192.059" y1="46.2614" x2="192.059" y2="57.4513" gradientUnits="userSpaceOnUse">
<stop stop-color="#19F18A"/>
<stop offset="1" stop-color="#49C6E5"/>
</linearGradient>
<linearGradient id="paint4_linear" x1="258.167" y1="55.6078" x2="258.167" y2="128.37" gradientUnits="userSpaceOnUse">
<stop stop-color="#19F18A"/>
<stop offset="1" stop-color="#49C6E5"/>
</linearGradient>
<linearGradient id="paint5_linear" x1="277.771" y1="72.6446" x2="277.771" y2="128.357" gradientUnits="userSpaceOnUse">
<stop stop-color="#19F18A"/>
<stop offset="1" stop-color="#49C6E5"/>
</linearGradient>
<linearGradient id="paint6_linear" x1="297.362" y1="61.5465" x2="297.362" y2="128.37" gradientUnits="userSpaceOnUse">
<stop stop-color="#19F18A"/>
<stop offset="1" stop-color="#49C6E5"/>
</linearGradient>
<linearGradient id="paint7_linear" x1="316.966" y1="81.6764" x2="316.966" y2="128.357" gradientUnits="userSpaceOnUse">
<stop stop-color="#19F18A"/>
<stop offset="1" stop-color="#49C6E5"/>
</linearGradient>
<linearGradient id="paint8_linear" x1="336.57" y1="61.5465" x2="336.57" y2="128.37" gradientUnits="userSpaceOnUse">
<stop stop-color="#19F18A"/>
<stop offset="1" stop-color="#49C6E5"/>
</linearGradient>
<linearGradient id="paint9_linear" x1="50.6041" y1="103.91" x2="50.6041" y2="158.349" gradientUnits="userSpaceOnUse">
<stop stop-color="#19F18A"/>
<stop offset="1" stop-color="#49C6E5"/>
</linearGradient>
<linearGradient id="paint10_linear" x1="178.957" y1="114.109" x2="178.957" y2="252.285" gradientUnits="userSpaceOnUse">
<stop stop-color="#19F18A"/>
<stop offset="1" stop-color="#49C6E5"/>
</linearGradient>
<linearGradient id="paint11_linear" x1="64.9318" y1="215.892" x2="64.9318" y2="235.354" gradientUnits="userSpaceOnUse">
<stop stop-color="#19F18A"/>
<stop offset="1" stop-color="#49C6E5"/>
</linearGradient>
<linearGradient id="paint12_linear" x1="281.226" y1="200.785" x2="281.226" y2="237.766" gradientUnits="userSpaceOnUse">
<stop stop-color="#19F18A"/>
<stop offset="1" stop-color="#49C6E5"/>
</linearGradient>
</defs>
</svg>
