<svg width="64" height="64" viewBox="0 0 64 64" fill="none" xmlns="http://www.w3.org/2000/svg">
<path d="M32 6.10352e-05C27.7977 6.10352e-05 23.6365 0.827766 19.7541 2.43592C15.8717 4.04407 12.3441 6.40117 9.37258 9.37264C3.37142 15.3738 0 23.5131 0 32.0001C0 40.487 3.37142 48.6263 9.37258 54.6275C12.3441 57.599 15.8717 59.9561 19.7541 61.5642C23.6365 63.1724 27.7977 64.0001 32 64.0001C40.4869 64.0001 48.6263 60.6286 54.6274 54.6275C60.6286 48.6263 64 40.487 64 32.0001C64 28.2881 63.328 24.6081 62.048 21.1521L56.928 26.2721C57.376 28.1601 57.6 30.0801 57.6 32.0001C57.6 38.7896 54.9029 45.3011 50.1019 50.102C45.301 54.9029 38.7895 57.6001 32 57.6001C25.2105 57.6001 18.699 54.9029 13.8981 50.102C9.09714 45.3011 6.4 38.7896 6.4 32.0001C6.4 25.2105 9.09714 18.6991 13.8981 13.8981C18.699 9.0972 25.2105 6.40006 32 6.40006C33.92 6.40006 35.84 6.62406 37.728 7.07206L42.88 1.92006C39.392 0.672061 35.712 6.10352e-05 32 6.10352e-05ZM54.4 6.10352e-05L41.6 12.8001V17.6001L33.44 25.7601C32.96 25.6001 32.48 25.6001 32 25.6001C30.3026 25.6001 28.6748 26.2743 27.4745 27.4746C26.2743 28.6748 25.6 30.3027 25.6 32.0001C25.6 33.6974 26.2743 35.3253 27.4745 36.5255C28.6748 37.7258 30.3026 38.4001 32 38.4001C33.6974 38.4001 35.3252 37.7258 36.5255 36.5255C37.7257 35.3253 38.4 33.6974 38.4 32.0001C38.4 31.5201 38.4 31.0401 38.24 30.5601L46.4 22.4001H51.2L64 9.60006H54.4V6.10352e-05ZM32 12.8001C26.9078 12.8001 22.0243 14.8229 18.4236 18.4236C14.8229 22.0243 12.8 26.9079 12.8 32.0001C12.8 37.0922 14.8229 41.9758 18.4236 45.5765C22.0243 49.1772 26.9078 51.2001 32 51.2001C37.0922 51.2001 41.9758 49.1772 45.5765 45.5765C49.1772 41.9758 51.2 37.0922 51.2 32.0001H44.8C44.8 35.3948 43.4514 38.6506 41.051 41.051C38.6505 43.4515 35.3948 44.8001 32 44.8001C28.6052 44.8001 25.3495 43.4515 22.949 41.051C20.5486 38.6506 19.2 35.3948 19.2 32.0001C19.2 28.6053 20.5486 25.3496 22.949 22.9491C25.3495 20.5486 28.6052 19.2001 32 19.2001V12.8001Z" fill="url(#paint0_linear)"/>
<defs>
<linearGradient id="paint0_linear" x1="32" y1="6.10352e-05" x2="32" y2="64.0001" gradientUnits="userSpaceOnUse">
<stop stop-color="#19F18A"/>
<stop offset="1" stop-color="#49C6E5"/>
</linearGradient>
</defs>
</svg>
