<svg width="637" height="480" viewBox="0 0 637 480" fill="none" xmlns="http://www.w3.org/2000/svg">
<path opacity="0.45" d="M312.528 433.734C434.253 433.734 532.93 419.947 532.93 402.941C532.93 385.935 434.253 372.149 312.528 372.149C190.804 372.149 92.1262 385.935 92.1262 402.941C92.1262 419.947 190.804 433.734 312.528 433.734Z" fill="#E6E6E6"/>
<path d="M426.233 82.5994H176.688V400.266H426.233V82.5994Z" fill="#C9C9C9"/>
<path d="M395.434 105.924H203.824V172.907H395.434V105.924Z" fill="white"/>
<path opacity="0.6" d="M342.515 189.465H301.858V223.824H342.515V189.465Z" fill="white"/>
<path opacity="0.14" d="M214.78 126.957C214.78 126.957 224.335 129.218 221.31 145.187C218.284 161.156 211.755 169.643 214.51 176.011C217.265 182.38 254.322 170.693 276.617 202.537C298.912 234.38 318.022 274.725 280.328 271.541C242.633 268.356 227.775 276.986 228.842 303.177C229.909 329.368 271.123 400.298 271.123 400.298H178.36L183.965 275.314L205.496 137.083L214.78 126.957Z" fill="black"/>
<path opacity="0.6" d="M290.217 189.465H249.561V223.824H290.217V189.465Z" fill="white"/>
<path d="M235.563 189.465H194.906V223.824H235.563V189.465Z" fill="white"/>
<path opacity="0.6" d="M342.515 240.939H301.858V275.298H342.515V240.939Z" fill="white"/>
<path opacity="0.6" d="M290.217 240.939H249.561V275.298H290.217V240.939Z" fill="white"/>
<path opacity="0.6" d="M235.563 240.939H194.906V275.298H235.563V240.939Z" fill="white"/>
<path opacity="0.6" d="M342.085 290.615H301.428V324.973H342.085V290.615Z" fill="white"/>
<path opacity="0.6" d="M289.787 290.615H249.131V324.973H289.787V290.615Z" fill="white"/>
<path opacity="0.6" d="M289.787 337.313H249.131V371.671H289.787V337.313Z" fill="white"/>
<path opacity="0.6" d="M235.133 290.615H194.476V324.973H235.133V290.615Z" fill="white"/>
<path d="M240.611 181.09C240.611 181.09 303.785 230.224 286.634 271.604C285.811 273.618 284.473 275.38 282.755 276.716C281.038 278.051 278.999 278.912 276.844 279.213C274.69 279.515 272.493 279.246 270.475 278.433C268.457 277.62 266.687 276.292 265.342 274.582L233.938 234.252L240.611 181.09Z" fill="#19F18A"/>
<path opacity="0.46" d="M240.611 181.09C240.611 181.09 303.785 230.224 286.634 271.604C285.811 273.618 284.473 275.38 282.755 276.716C281.038 278.051 278.999 278.912 276.844 279.213C274.69 279.515 272.493 279.246 270.475 278.433C268.457 277.62 266.687 276.292 265.342 274.582L233.938 234.252L240.611 181.09Z" fill="white"/>
<path d="M239.401 393.898C239.401 393.898 241.63 397.926 245.548 397.624C249.465 397.321 251.105 400.951 247.777 402.496C244.449 404.04 234.766 401.031 234.766 401.031L233.938 393.898H239.401Z" fill="url(#paint0_linear)"/>
<path d="M178.551 393.898C178.551 393.898 180.781 397.926 184.698 397.624C188.616 397.321 190.256 400.951 186.928 402.496C183.599 404.04 173.933 401.031 173.933 401.031L173.089 393.898H178.551Z" fill="url(#paint1_linear)"/>
<path d="M211.134 140.331C211.623 144.719 211.521 149.153 210.831 153.514C210.716 154.026 210.502 154.51 210.199 154.939C209.897 155.368 209.512 155.732 209.068 156.012C208.624 156.292 208.129 156.481 207.612 156.568C207.095 156.656 206.565 156.641 206.054 156.523C204.392 156.246 202.845 155.499 201.595 154.37C200.345 153.241 199.444 151.779 198.999 150.155L196.451 143.276C196.084 141.847 196.171 140.34 196.698 138.962C197.226 137.584 198.169 136.405 199.397 135.586C203.84 132.179 210.831 135.507 211.134 140.331Z" fill="#F4A28C"/>
<path d="M197.9 145.155L191.466 170.359L205.624 172.907L204.62 153.53L197.9 145.155Z" fill="#F4A28C"/>
<path d="M195.575 149.374C195.575 149.543 195.634 149.707 195.742 149.838C195.849 149.968 195.998 150.058 196.164 150.091C197.275 150.375 198.449 150.291 199.508 149.852C200.568 149.412 201.456 148.642 202.04 147.655C202.719 146.558 203.063 145.286 203.029 143.996C202.995 142.706 202.585 141.455 201.849 140.395C204.268 140.804 206.727 140.927 209.175 140.761C210.001 140.717 210.814 140.534 211.58 140.22L213.475 134.201C213.475 134.201 216.66 128.167 213.045 126.973C209.43 125.779 207.949 129.807 205.082 126.973C202.216 124.139 201.499 123.072 198.585 124.696C195.67 126.32 199.062 128.549 194.285 128.629C189.507 128.708 189.396 130.667 189.396 132.864C189.507 133.613 189.84 134.312 190.351 134.87C193.614 139.014 195.447 144.102 195.575 149.374Z" fill="#24285B"/>
<path d="M202.885 147.352C202.885 147.352 202.741 144.295 200.448 144.582C198.155 144.869 198.33 149.359 201.467 149.629L202.885 147.352Z" fill="#F4A28C"/>
<path d="M211.436 145.33L213.729 148.34C213.861 148.508 213.948 148.707 213.981 148.918C214.015 149.129 213.994 149.345 213.92 149.546C213.847 149.747 213.724 149.926 213.562 150.065C213.401 150.205 213.206 150.302 212.997 150.346L209.971 150.998L211.436 145.33Z" fill="#F4A28C"/>
<path opacity="0.31" d="M204.7 156.125C204.7 156.125 202.884 155.807 199.604 152.845C199.604 152.845 199.126 158.004 205.05 161.809L204.7 156.125Z" fill="#CE8172"/>
<path d="M142.083 179.132C144.518 174.837 148.063 171.276 152.347 168.82C156.63 166.363 161.495 165.102 166.432 165.169C186.291 165.344 222.361 167.652 240.611 181.09C266.632 200.196 253.351 226.721 231.597 255.922C209.844 285.122 209.971 303.145 209.971 303.145L154.616 300.502C154.616 300.502 115.297 226.881 142.083 179.132Z" fill="url(#paint2_linear)"/>
<path d="M154.616 300.502L174.793 344.016L171.082 393.898H181.163L193.218 353.234C195.185 346.659 195.185 339.653 193.218 333.077L187.071 312.698L210.035 303.145L154.616 300.502Z" fill="#24285B"/>
<path d="M209.971 303.145L243.27 393.898H230.005C230.005 393.898 203.139 332.011 182.23 316.424V310.58L209.971 303.145Z" fill="#24285B"/>
<path opacity="0.08" d="M178.36 181.09C178.36 181.09 187.692 210.8 170.175 229.412C152.657 248.024 164.521 287.319 175.509 301.505L156.176 300.502C156.176 300.502 135.124 271.843 132.799 222.136C130.474 172.429 178.36 181.09 178.36 181.09Z" fill="black"/>
<path d="M176.417 192.761C183.281 178.989 171.48 163.099 156.272 165.407C130.792 169.229 94.0213 182.523 87.9857 226.928C78.6059 295.837 144.519 298.798 144.519 298.798L145.969 290.615C145.969 290.615 130.267 282.988 119.979 268.961C107 251.352 116.253 226.1 137.401 220.512C151.288 216.866 168.248 209.128 176.417 192.761Z" fill="#19F18A"/>
<path opacity="0.46" d="M176.417 192.761C183.281 178.989 171.48 163.099 156.272 165.407C130.792 169.229 94.0213 182.523 87.9857 226.928C78.6059 295.837 144.519 298.798 144.519 298.798L145.969 290.615C145.969 290.615 130.267 282.988 119.979 268.961C107 251.352 116.253 226.1 137.401 220.512C151.288 216.866 168.248 209.128 176.417 192.761Z" fill="white"/>
<path d="M145.969 290.615C145.969 290.615 158.327 290.487 155.858 303.145C153.39 315.803 144.52 298.798 144.52 298.798L145.969 290.615Z" fill="#F4A28C"/>
<path d="M235.85 193.509L214.744 187.387L205.341 219.788L226.447 225.911L235.85 193.509Z" fill="#EF626C"/>
<path opacity="0.08" d="M211.978 221.706C211.978 221.706 213.045 207.552 227.17 212.058L226.454 225.893L211.978 221.706Z" fill="black"/>
<path d="M267.89 277.002C269.903 278.357 272.309 279.003 274.73 278.837C277.15 278.671 279.446 277.704 281.255 276.087C283.064 274.471 284.282 272.297 284.717 269.911C285.152 267.525 284.778 265.062 283.656 262.911C280.902 257.892 277.197 253.458 272.747 249.855C250.612 230.972 237.919 223.967 237.919 223.967L228.922 230.336C228.922 230.336 244.688 261.813 267.89 277.002Z" fill="#19F18A"/>
<path opacity="0.46" d="M267.89 277.002C269.903 278.357 272.309 279.003 274.73 278.837C277.15 278.671 279.446 277.704 281.255 276.087C283.064 274.471 284.282 272.297 284.717 269.911C285.152 267.525 284.778 265.062 283.656 262.911C280.902 257.892 277.197 253.458 272.747 249.855C250.612 230.972 237.919 223.967 237.919 223.967L228.922 230.336C228.922 230.336 244.688 261.813 267.89 277.002Z" fill="white"/>
<path d="M237.92 223.967C237.92 223.967 232.744 213.65 227.17 212.058C221.597 210.465 217.488 219.159 230.164 229.412L237.92 223.967Z" fill="#F4A28C"/>
<path d="M395.45 189.465H354.793V223.824H395.45V189.465Z" fill="#ADADAD"/>
<path d="M395.45 240.939H354.793V275.298H395.45V240.939Z" fill="#ADADAD"/>
<path d="M395.45 290.615H354.793V374.744H395.45V290.615Z" fill="white"/>
<path d="M475.075 63.4616H375.113V127.148H475.075V63.4616Z" fill="#EF626C"/>
<path d="M383.235 156.619H342.085V165.169H383.235V156.619Z" fill="url(#paint3_linear)"/>
<path opacity="0.41" d="M383.235 141.111H342.085V149.661H383.235V141.111Z" fill="url(#paint4_linear)"/>
<path d="M408.397 100.702H394.844V114.251H408.397V100.702Z" fill="#24285B"/>
<path d="M431.233 86.134H417.681V114.251H431.233V86.134Z" fill="#24285B"/>
<path d="M455.343 76.3422H441.791V114.251H455.343V76.3422Z" fill="#24285B"/>
<path opacity="0.08" d="M426.233 127.18H375.113V144.566H426.233V127.18Z" fill="black"/>
<path opacity="0.58" d="M472.702 379.998C472.702 379.998 458.035 376.002 454.834 362.341C454.834 362.341 477.575 357.756 478.212 381.208L472.702 379.998Z" fill="url(#paint5_linear)"/>
<path opacity="0.73" d="M474.565 378.518C474.565 378.518 464.309 362.309 473.339 347.168C473.339 347.168 490.617 358.138 482.894 378.55L474.565 378.518Z" fill="url(#paint6_linear)"/>
<path d="M477.145 378.518C477.145 378.518 482.559 361.402 498.93 358.17C498.93 358.17 501.988 369.315 488.324 378.549L477.145 378.518Z" fill="url(#paint7_linear)"/>
<path d="M466.507 378.167L469.469 398.515L488.197 398.595L490.968 378.279L466.507 378.167Z" fill="#24285B"/>
<defs>
<linearGradient id="paint0_linear" x1="241.753" y1="393.898" x2="241.753" y2="402.936" gradientUnits="userSpaceOnUse">
<stop stop-color="#19F18A"/>
<stop offset="1" stop-color="#49C6E5"/>
</linearGradient>
<linearGradient id="paint1_linear" x1="180.903" y1="393.898" x2="180.903" y2="402.936" gradientUnits="userSpaceOnUse">
<stop stop-color="#19F18A"/>
<stop offset="1" stop-color="#49C6E5"/>
</linearGradient>
<linearGradient id="paint2_linear" x1="193.845" y1="165.166" x2="193.845" y2="303.145" gradientUnits="userSpaceOnUse">
<stop stop-color="#19F18A"/>
<stop offset="1" stop-color="#49C6E5"/>
</linearGradient>
<linearGradient id="paint3_linear" x1="362.66" y1="156.619" x2="362.66" y2="165.169" gradientUnits="userSpaceOnUse">
<stop stop-color="#19F18A"/>
<stop offset="1" stop-color="#49C6E5"/>
</linearGradient>
<linearGradient id="paint4_linear" x1="362.66" y1="141.111" x2="362.66" y2="149.661" gradientUnits="userSpaceOnUse">
<stop stop-color="#19F18A"/>
<stop offset="1" stop-color="#49C6E5"/>
</linearGradient>
<linearGradient id="paint5_linear" x1="466.523" y1="361.979" x2="466.523" y2="381.208" gradientUnits="userSpaceOnUse">
<stop stop-color="#19F18A"/>
<stop offset="1" stop-color="#49C6E5"/>
</linearGradient>
<linearGradient id="paint6_linear" x1="477.251" y1="347.168" x2="477.251" y2="378.55" gradientUnits="userSpaceOnUse">
<stop stop-color="#19F18A"/>
<stop offset="1" stop-color="#49C6E5"/>
</linearGradient>
<linearGradient id="paint7_linear" x1="488.184" y1="358.17" x2="488.184" y2="378.549" gradientUnits="userSpaceOnUse">
<stop stop-color="#19F18A"/>
<stop offset="1" stop-color="#49C6E5"/>
</linearGradient>
</defs>
</svg>
