<svg width="64" height="64" viewBox="0 0 64 64" fill="none" xmlns="http://www.w3.org/2000/svg">
<path d="M12.8 35.5556C5.728 35.5556 0 41.9201 0 49.7778C0 57.6356 5.728 64.0001 12.8 64.0001C19.872 64.0001 25.6 57.6356 25.6 49.7778C25.6 41.9201 19.872 35.5556 12.8 35.5556ZM12.8 56.889C9.28 56.889 6.4 53.6889 6.4 49.7778C6.4 45.8667 9.28 42.6667 12.8 42.6667C16.32 42.6667 19.2 45.8667 19.2 49.7778C19.2 53.6889 16.32 56.889 12.8 56.889ZM12.8 6.10352e-05C5.728 6.10352e-05 0 6.36451 0 14.2223C0 22.0801 5.728 28.4445 12.8 28.4445C19.872 28.4445 25.6 22.0801 25.6 14.2223C25.6 6.36451 19.872 6.10352e-05 12.8 6.10352e-05ZM32 7.11117H64V14.2223H32V7.11117ZM32 56.889V49.7778H64V56.889H32ZM32 28.4445H64V35.5556H32V28.4445Z" fill="url(#paint0_linear)"/>
<defs>
<linearGradient id="paint0_linear" x1="32" y1="6.10352e-05" x2="32" y2="64.0001" gradientUnits="userSpaceOnUse">
<stop stop-color="#19F18A"/>
<stop offset="1" stop-color="#49C6E5"/>
</linearGradient>
</defs>
</svg>
