<svg width="637" height="480" viewBox="0 0 637 480" fill="none" xmlns="http://www.w3.org/2000/svg">
<path d="M553.091 337.249C552.457 335.646 551.684 334.101 550.782 332.632C547.963 326.263 553.457 319.703 557.359 313.988C560.685 309.107 563.037 303.631 564.286 297.859C564.518 297.189 564.61 296.479 564.555 295.772C564.5 295.065 564.3 294.377 563.968 293.751C563.627 293.329 563.198 292.985 562.712 292.743C562.225 292.501 561.692 292.367 561.149 292.35C557.566 292.095 554.62 295.168 552.868 298.305C551.116 301.441 549.826 305.024 547.024 307.269C541.593 311.599 531.752 309.975 528.917 316.328C527.165 320.261 529.347 325.594 526.465 328.795C525.421 329.772 524.199 330.54 522.865 331.055C515.19 334.702 508.151 340.194 504.026 347.63C494.837 364.268 509.998 392.497 530.701 382.992C543.52 377.117 539.571 366.226 541.498 355.925C542.772 348.951 554.843 344.382 553.091 337.249Z" fill="#231F20"/>
<path d="M522.467 385.682C519.759 385.639 517.089 385.025 514.634 383.881C512.178 382.737 509.991 381.089 508.215 379.043C500.332 370.525 498.182 356.562 503.342 347.2C508.119 338.475 516.448 333.189 522.531 330.291L522.786 330.164C523.932 329.716 524.981 329.051 525.875 328.205C527.293 326.613 527.309 324.352 527.341 321.932C527.216 319.899 527.509 317.862 528.2 315.946C529.984 311.918 534.3 310.835 538.488 309.8C541.36 309.305 544.098 308.221 546.53 306.616C548.433 304.831 549.932 302.659 550.925 300.247C551.324 299.435 551.738 298.655 552.184 297.843C553.314 295.821 556.436 291.156 561.213 291.474C561.873 291.491 562.521 291.654 563.11 291.951C563.7 292.248 564.216 292.673 564.621 293.194C565.023 293.915 565.271 294.713 565.348 295.535C565.425 296.358 565.329 297.187 565.067 297.97C563.786 303.838 561.391 309.405 558.012 314.37C557.598 314.991 557.152 315.627 556.706 316.264C553.187 321.296 549.174 327.011 551.499 332.186C551.775 332.768 552.089 333.332 552.438 333.874C553.053 334.82 553.531 335.85 553.856 336.931C554.939 341.341 551.419 344.748 547.995 348.076C545.447 350.543 542.804 353.091 542.278 355.925C541.854 358.558 541.619 361.219 541.577 363.886C541.275 371.719 540.988 379.107 531.035 383.676C528.358 384.957 525.435 385.641 522.467 385.682ZM560.687 293.13C557.057 293.13 554.477 296.983 553.521 298.687C553.091 299.451 552.693 300.279 552.295 301.027C551.217 303.628 549.587 305.964 547.517 307.874C544.918 309.645 541.97 310.839 538.87 311.376C534.889 312.379 531.131 313.319 529.65 316.646C529.051 318.363 528.802 320.182 528.917 321.996C528.917 324.591 528.917 327.298 527.038 329.32C526.017 330.326 524.804 331.116 523.471 331.645L523.216 331.772C517.34 334.558 509.345 339.733 504.727 348.012C499.95 356.769 501.924 369.92 509.377 377.96C511.894 380.921 515.33 382.954 519.136 383.736C522.943 384.518 526.902 384.004 530.382 382.275C539.444 378.104 539.698 371.512 539.937 363.854C539.973 361.128 540.213 358.408 540.654 355.718C541.275 352.39 544.094 349.652 546.833 347.025C550.018 343.84 553.123 340.959 552.247 337.472C551.962 336.541 551.544 335.656 551.005 334.845C550.634 334.242 550.293 333.62 549.986 332.982C547.31 326.932 551.578 320.834 555.337 315.468C555.783 314.831 556.228 314.21 556.643 313.589C559.9 308.789 562.213 303.413 563.458 297.748C563.852 296.605 563.783 295.354 563.267 294.261C562.995 293.932 562.655 293.666 562.27 293.482C561.885 293.298 561.465 293.2 561.038 293.194L560.687 293.13Z" fill="#231F20"/>
<path d="M109.58 342.185C103.879 338.443 102.78 330.705 99.4834 324.671C94.9766 316.487 86.1701 311.599 77.2999 308.749C75.8188 308.256 73.8919 307.937 72.9523 309.179C72.516 309.853 72.3405 310.662 72.4587 311.456C72.9523 320.229 82.0137 326.773 82.3003 335.545C82.4118 340.433 79.7364 345.608 81.95 349.97C84.1635 354.333 90.0876 355.591 92.0146 359.969C93.3523 363.026 92.2853 366.529 92.3012 369.856C92.4923 392.529 133.913 394.583 142.99 377.658C147.083 370.047 144.057 360.701 138.977 354.381C130.41 343.713 119.437 348.649 109.58 342.185Z" fill="#231F20"/>
<path d="M118.546 389.663C115.36 389.676 112.184 389.307 109.086 388.564C98.1616 385.857 91.5687 378.9 91.5687 369.936C91.5838 368.872 91.6529 367.809 91.7757 366.752C92.1684 364.626 92.0206 362.436 91.3457 360.383C90.2078 358.393 88.5583 356.744 86.5682 355.607C84.3671 354.324 82.5264 352.506 81.2174 350.321C79.7046 347.327 80.3097 344.032 80.883 340.847C81.2623 339.115 81.465 337.35 81.4882 335.577C81.3926 331.342 79.1153 327.616 76.7107 323.763C74.306 319.91 71.9332 316.025 71.6624 311.504C71.5439 310.517 71.7749 309.52 72.3154 308.686C73.3027 307.412 75.0545 307.173 77.5388 308.001C88.5748 311.647 96.2029 317.14 100.184 324.384C101.22 326.376 102.134 328.428 102.923 330.53C104.675 334.956 106.331 339.144 110.01 341.548C114.007 344.175 118.307 344.875 122.463 345.544C128.355 346.499 134.439 347.487 139.598 353.919C144.376 359.794 148.214 369.633 143.691 378.056C139.471 385.905 128.817 389.663 118.546 389.663ZM74.9908 309.1C74.7277 309.079 74.4633 309.118 74.2177 309.215C73.9721 309.311 73.7518 309.462 73.5734 309.657C73.2655 310.191 73.1529 310.816 73.2549 311.424C73.4779 315.532 75.7074 319.13 78.0324 322.92C80.3575 326.709 82.9533 330.88 83.0647 335.529C83.0443 337.414 82.8309 339.292 82.4277 341.134C81.8704 344.191 81.3448 347.088 82.6188 349.604C83.8197 351.49 85.4587 353.058 87.3963 354.174C89.6438 355.48 91.4934 357.373 92.7471 359.651C93.5423 361.935 93.7343 364.387 93.3045 366.768C93.209 367.802 93.1134 368.853 93.1134 369.856C93.209 381.67 104.595 385.778 109.484 386.956C121.237 389.854 137.114 386.956 142.306 377.276C146.462 369.538 142.783 360.367 138.372 354.874C133.595 348.919 128.069 348.028 122.224 347.088C117.909 346.388 113.434 345.656 109.15 342.837C104.866 340.019 103.226 335.545 101.458 331.087C100.675 329.043 99.7651 327.049 98.7349 325.117C94.9448 318.255 87.5874 313 76.9814 309.498C76.3407 309.269 75.6701 309.135 74.9908 309.1Z" fill="#231F20"/>
<path d="M139.965 316.424C140.124 312.714 142.322 309.386 142.831 305.708C144.073 296.49 134.98 289.787 128.992 282.622C122.622 275.027 119.278 265.475 115.615 256.383C114.278 253.072 112.781 249.633 109.978 247.419C107.175 245.206 102.652 244.745 100.232 247.419C98.4482 249.378 98.3368 252.323 98.5119 254.982C98.9543 261.339 100.462 267.577 102.971 273.435C105.216 278.689 108.338 284.103 107.35 289.739C106.538 294.388 103.114 298.034 100.439 301.903C97.7635 305.772 95.6614 310.915 97.9386 315.07C99.2923 317.618 101.92 319.162 104.181 320.945C108.482 324.487 111.634 329.225 113.239 334.559C114.844 339.893 114.828 345.584 113.195 350.91C112.032 353.642 111.172 356.493 110.631 359.412C110.153 364.332 112.86 369.044 116.284 372.611C128.817 385.635 162.132 387.927 167.483 366.242C169.824 356.769 165.556 344.446 159.027 337.583C152.975 331.183 139.519 326.916 139.965 316.424Z" fill="#231F20"/>
<path d="M142.64 383.199C132.464 383.199 121.794 379.409 115.711 373.072C113.259 370.525 109.245 365.351 109.851 359.253C110.145 357.148 110.718 355.092 111.555 353.139C111.857 352.343 112.176 351.547 112.43 350.719C114.002 345.546 114.011 340.024 112.455 334.846C110.9 329.669 107.85 325.065 103.688 321.614L102.223 320.499C100.211 319.223 98.5082 317.515 97.238 315.5C94.5467 310.437 97.6839 304.562 99.786 301.505C100.359 300.677 100.98 299.913 101.586 299.021C103.735 296.124 105.965 293.114 106.57 289.659C107.35 285.17 105.328 280.68 103.385 276.349C103.003 275.489 102.621 274.645 102.254 273.786C99.702 267.822 98.1782 261.47 97.7476 254.998C97.5565 252.387 97.6202 249.091 99.6745 246.846C102.477 243.773 107.478 244.426 110.488 246.846C113.497 249.266 114.915 252.546 116.364 256.144L117.558 259.17C120.743 267.21 124.04 275.537 129.614 282.144C130.872 283.641 132.321 285.17 133.706 286.65C139.089 292.334 144.663 298.225 143.628 305.852C143.33 307.58 142.849 309.272 142.194 310.899C141.44 312.679 140.962 314.563 140.777 316.487C140.474 323.286 146.51 327.394 152.354 331.358C154.958 332.989 157.39 334.877 159.616 336.994C166.83 344.493 170.557 357.119 168.279 366.338C166.337 374.187 160.54 379.775 151.956 382.084C148.912 382.855 145.781 383.23 142.64 383.199ZM104.691 246.369C103.97 246.345 103.252 246.475 102.585 246.749C101.918 247.024 101.317 247.437 100.821 247.961C99.2286 249.744 99.149 252.626 99.2286 254.919C99.6489 261.214 101.129 267.394 103.608 273.197C103.974 274.04 104.356 274.884 104.739 275.728C106.793 280.282 108.911 284.994 108.051 289.962C107.382 293.799 105.041 296.951 102.78 300.008C102.175 300.805 101.586 301.616 101.012 302.444C99.4197 304.658 96.2347 310.294 98.5598 314.784C99.7257 316.594 101.275 318.127 103.098 319.273C103.608 319.64 104.102 320.022 104.595 320.404C109.009 324.058 112.244 328.936 113.894 334.423C115.543 339.91 115.532 345.763 113.864 351.244C113.593 352.072 113.274 352.836 112.956 353.728C112.218 355.55 111.72 357.461 111.475 359.412C110.934 364.873 114.66 369.633 116.905 371.974C124.533 379.935 139.774 383.66 151.574 380.492C157.243 378.9 164.473 375.222 166.767 365.908C169.139 356.355 164.426 344.207 158.501 338.029C156.349 335.999 154.002 334.186 151.494 332.616C145.586 328.604 138.898 324.066 139.216 316.376C139.432 314.284 139.969 312.238 140.809 310.31C141.436 308.773 141.891 307.171 142.162 305.533C143.102 298.671 137.799 293.067 132.607 287.637C131.206 286.141 129.741 284.612 128.451 283.068C122.702 276.253 119.374 267.815 116.141 259.647L114.931 256.638C113.577 253.247 112.144 250.031 109.548 247.993C108.152 246.931 106.445 246.36 104.691 246.369Z" fill="#231F20"/>
<path d="M411.836 389.838H523.566V285.806H411.836V389.838Z" fill="url(#paint0_linear)"/>
<path d="M523.566 390.618H411.836C411.625 390.618 411.423 390.534 411.273 390.385C411.124 390.236 411.04 390.033 411.04 389.822V285.79C411.04 285.579 411.124 285.377 411.273 285.228C411.423 285.078 411.625 284.994 411.836 284.994H523.566C523.777 284.994 523.98 285.078 524.129 285.228C524.278 285.377 524.362 285.579 524.362 285.79V389.822C524.362 390.033 524.278 390.236 524.129 390.385C523.98 390.534 523.777 390.618 523.566 390.618ZM412.633 389.026H522.77V286.587H412.633V389.026Z" fill="#231F20"/>
<path d="M268.241 389.822H379.97V236.816H268.241V389.822Z" fill="url(#paint1_linear)"/>
<path d="M379.97 390.618H268.225C268.014 390.618 267.811 390.534 267.662 390.385C267.512 390.236 267.428 390.033 267.428 389.822V236.816C267.433 236.606 267.518 236.406 267.666 236.257C267.815 236.109 268.015 236.024 268.225 236.02H379.97C380.18 236.024 380.381 236.109 380.529 236.257C380.677 236.406 380.763 236.606 380.767 236.816V389.822C380.767 390.033 380.683 390.236 380.533 390.385C380.384 390.534 380.182 390.618 379.97 390.618ZM269.021 389.026H379.174V237.612H269.021V389.026Z" fill="#231F20"/>
<path d="M124.629 389.822H236.359L236.359 157.463H124.629L124.629 389.822Z" fill="url(#paint2_linear)"/>
<path d="M236.359 390.618H124.629C124.418 390.618 124.215 390.534 124.066 390.385C123.917 390.236 123.833 390.033 123.833 389.822V157.463C123.833 157.251 123.917 157.049 124.066 156.9C124.215 156.75 124.418 156.667 124.629 156.667H236.359C236.57 156.667 236.773 156.75 236.922 156.9C237.071 157.049 237.155 157.251 237.155 157.463V389.822C237.155 389.927 237.134 390.03 237.094 390.127C237.054 390.223 236.996 390.311 236.922 390.385C236.848 390.459 236.76 390.517 236.664 390.557C236.567 390.597 236.463 390.618 236.359 390.618ZM125.425 389.026H235.563V158.259H125.425V389.026Z" fill="#231F20"/>
<path d="M439.371 218.156V238.886H424.115L439.371 247.77V272.48H515.54V218.156H439.371Z" fill="white"/>
<path d="M515.54 273.276H439.371C439.161 273.272 438.961 273.187 438.812 273.038C438.664 272.89 438.578 272.69 438.574 272.48V248.231L423.716 239.57C423.567 239.481 423.451 239.346 423.385 239.185C423.32 239.024 423.309 238.847 423.354 238.679C423.399 238.511 423.498 238.363 423.635 238.256C423.772 238.15 423.941 238.091 424.115 238.089H438.574V218.156C438.578 217.946 438.664 217.746 438.812 217.597C438.961 217.449 439.161 217.364 439.371 217.36H515.54C515.751 217.36 515.954 217.443 516.103 217.593C516.252 217.742 516.336 217.944 516.336 218.156V272.48C516.336 272.691 516.252 272.894 516.103 273.043C515.954 273.192 515.751 273.276 515.54 273.276ZM440.167 271.684H514.744V218.952H440.167V238.885C440.167 239.097 440.083 239.299 439.934 239.448C439.784 239.598 439.582 239.682 439.371 239.682H427.061L439.801 247.085C439.921 247.155 440.021 247.254 440.091 247.374C440.161 247.495 440.198 247.631 440.199 247.77L440.167 271.684Z" fill="#231F20"/>
<path d="M459.436 185.755C459.643 185.134 459.85 184.513 460.073 183.892C460.185 183.574 460.312 183.256 460.44 182.937C460.51 182.739 460.647 182.571 460.827 182.461C461.006 182.351 461.218 182.305 461.427 182.332C461.936 182.332 462.43 182.507 462.924 182.587C463.192 182.634 463.464 182.666 463.736 182.682C463.937 182.694 464.135 182.631 464.293 182.507C464.867 181.95 465.424 181.377 465.966 180.804C466.06 180.697 466.125 180.567 466.156 180.428C466.186 180.289 466.181 180.144 466.141 180.008C466.013 179.403 465.87 178.798 465.743 178.192C465.703 177.955 465.703 177.713 465.743 177.476C465.747 177.388 465.77 177.302 465.808 177.223C465.846 177.144 465.9 177.073 465.966 177.014C466.894 176.408 467.909 175.947 468.975 175.645C469.132 175.596 469.3 175.6 469.455 175.654C469.61 175.709 469.743 175.811 469.835 175.948C470.217 176.473 470.616 176.998 470.982 177.54C471.104 177.743 471.281 177.907 471.492 178.014C471.703 178.121 471.94 178.167 472.176 178.145C472.829 178.145 473.498 178.145 474.167 178.049C474.29 178.043 474.41 178.006 474.515 177.942C474.621 177.878 474.709 177.789 474.772 177.683C475.011 177.333 475.234 176.982 475.457 176.632C475.68 176.282 475.855 176.011 476.062 175.725C476.157 175.574 476.3 175.461 476.468 175.403C476.636 175.345 476.818 175.346 476.986 175.406C477.909 175.725 478.833 176.043 479.741 176.393C479.912 176.463 480.055 176.59 480.145 176.752C480.235 176.914 480.266 177.102 480.234 177.285C480.234 177.794 480.075 178.304 479.979 178.877C479.979 179.116 479.98 179.355 479.9 179.594C479.877 179.748 479.893 179.906 479.946 180.053C479.999 180.2 480.087 180.332 480.202 180.437C480.68 180.899 481.174 181.345 481.652 181.823C481.784 181.967 481.953 182.073 482.142 182.126C482.33 182.179 482.53 182.179 482.719 182.125L484.693 181.679C484.909 181.607 485.144 181.622 485.349 181.72C485.554 181.818 485.713 181.992 485.792 182.205C486.174 182.985 486.541 183.797 486.875 184.577C486.943 184.685 486.989 184.805 487.009 184.931C487.029 185.057 487.023 185.186 486.992 185.31C486.961 185.433 486.904 185.549 486.827 185.65C486.749 185.752 486.652 185.836 486.541 185.899C486.206 186.153 485.84 186.392 485.49 186.647L484.757 187.236C484.661 187.319 484.584 187.422 484.532 187.537C484.48 187.653 484.453 187.778 484.454 187.905C484.454 188.605 484.454 189.29 484.454 189.974C484.458 190.164 484.512 190.348 484.61 190.511C484.708 190.673 484.846 190.806 485.012 190.898L486.142 191.567C486.365 191.71 486.604 191.853 486.811 192.012C486.973 192.112 487.094 192.267 487.149 192.449C487.205 192.631 487.192 192.826 487.114 193C486.811 193.843 486.509 194.592 486.19 195.483C486.138 195.614 486.068 195.737 485.983 195.849C485.911 195.983 485.797 196.089 485.659 196.152C485.522 196.215 485.367 196.232 485.219 196.2L483.419 195.913H483.292C483.042 195.849 482.778 195.859 482.535 195.944C482.291 196.029 482.078 196.185 481.922 196.391C481.588 196.789 481.206 197.155 480.839 197.537C480.672 197.701 480.552 197.908 480.493 198.135C480.434 198.363 480.438 198.602 480.505 198.827C480.648 199.416 480.792 199.989 480.919 200.578C480.966 200.692 480.989 200.814 480.985 200.936C480.981 201.059 480.951 201.18 480.897 201.29C480.842 201.4 480.765 201.497 480.67 201.575C480.575 201.653 480.464 201.709 480.346 201.74C479.55 202.123 478.753 202.489 477.893 202.839C477.708 202.94 477.491 202.967 477.287 202.914C477.083 202.86 476.907 202.731 476.794 202.552C476.476 202.154 476.189 201.725 475.887 201.311C475.25 200.403 475.091 200.323 473.976 200.387H472.686C472.479 200.387 472.276 200.442 472.097 200.545C471.919 200.649 471.77 200.797 471.667 200.976C471.412 201.406 471.157 201.852 470.886 202.266C470.739 202.486 470.574 202.694 470.393 202.887C470.313 202.986 470.203 203.057 470.079 203.088C469.956 203.12 469.826 203.111 469.708 203.062L467.096 202.091C466.979 202.037 466.868 201.973 466.762 201.9C466.624 201.827 466.514 201.712 466.448 201.571C466.382 201.43 466.364 201.272 466.395 201.12L466.682 199.352C466.699 199.172 466.699 198.991 466.682 198.811C466.697 198.664 466.677 198.515 466.624 198.377C466.572 198.239 466.488 198.115 466.38 198.015L464.978 196.693C464.843 196.564 464.676 196.473 464.494 196.431C464.311 196.389 464.121 196.397 463.943 196.455L462.191 196.853C461.427 196.996 461.188 196.853 460.854 196.184C460.519 195.515 460.153 194.592 459.834 193.812C459.781 193.721 459.747 193.621 459.733 193.517C459.72 193.413 459.727 193.307 459.755 193.206C459.784 193.105 459.832 193.01 459.898 192.928C459.963 192.847 460.045 192.779 460.137 192.729C460.615 192.379 461.077 192.028 461.57 191.71C461.811 191.578 462.006 191.377 462.131 191.133C462.256 190.889 462.305 190.613 462.271 190.341C462.271 189.72 462.271 189.099 462.175 188.478C462.173 188.347 462.138 188.22 462.074 188.106C462.01 187.992 461.919 187.895 461.809 187.825L460.217 186.838C459.848 186.67 459.558 186.368 459.404 185.994L459.436 185.755ZM479.167 189.21C479.169 188.433 479.017 187.664 478.72 186.946C478.423 186.228 477.986 185.576 477.435 185.029C476.884 184.481 476.23 184.048 475.51 183.754C474.791 183.461 474.02 183.313 473.243 183.319C471.699 183.364 470.233 184.004 469.15 185.105C468.066 186.205 467.45 187.682 467.431 189.226C467.443 190.773 468.062 192.254 469.155 193.35C470.248 194.446 471.727 195.069 473.275 195.085C474.05 195.096 474.82 194.951 475.539 194.66C476.257 194.369 476.911 193.937 477.46 193.389C478.009 192.842 478.443 192.19 478.736 191.472C479.029 190.755 479.176 189.985 479.167 189.21Z" fill="white"/>
<path d="M469.915 203.874C469.746 203.872 469.579 203.839 469.421 203.778L466.809 202.807C466.651 202.74 466.502 202.654 466.364 202.552C466.093 202.392 465.876 202.155 465.74 201.872C465.604 201.589 465.555 201.272 465.599 200.96L465.886 199.177C465.901 199.029 465.901 198.879 465.886 198.731C465.886 198.604 465.886 198.572 465.886 198.556L464.468 197.235C464.424 197.205 464.371 197.188 464.317 197.188C464.263 197.188 464.211 197.205 464.166 197.235L462.892 197.537L462.414 197.649C462.192 197.732 461.955 197.77 461.717 197.76C461.48 197.751 461.247 197.694 461.032 197.593C460.817 197.492 460.624 197.349 460.465 197.173C460.306 196.997 460.183 196.79 460.105 196.566C459.723 195.77 459.388 194.974 459.054 194.146C458.888 193.797 458.854 193.399 458.959 193.027C459.065 192.655 459.302 192.334 459.627 192.124C460.105 191.763 460.599 191.413 461.108 191.073C461.226 191.014 461.322 190.919 461.382 190.801C461.442 190.684 461.464 190.55 461.443 190.42C461.443 190.022 461.443 189.624 461.443 189.21V188.557L459.85 187.538C459.328 187.272 458.921 186.825 458.704 186.281C458.696 186.196 458.696 186.111 458.704 186.026V185.803C458.687 185.719 458.687 185.632 458.704 185.548L458.863 185.039L459.341 183.67C459.452 183.335 459.595 183.001 459.723 182.682C459.859 182.324 460.113 182.022 460.442 181.826C460.772 181.629 461.158 181.549 461.538 181.6C461.873 181.6 462.223 181.695 462.573 181.759L463.29 181.886C463.439 181.895 463.587 181.895 463.736 181.886C464.32 181.384 464.878 180.853 465.408 180.294L465.201 179.418C465.121 179.068 465.042 178.734 464.978 178.384C464.903 178.071 464.877 177.749 464.898 177.428C464.914 177.219 464.977 177.016 465.081 176.834C465.186 176.652 465.33 176.496 465.504 176.377C466.483 175.728 467.558 175.234 468.689 174.913C469 174.814 469.335 174.82 469.642 174.929C469.95 175.038 470.213 175.245 470.393 175.518L470.791 176.059L471.571 177.11C471.73 177.349 471.826 177.38 472.033 177.365H473.371H474.055C474.167 177.142 474.31 176.935 474.438 176.712L474.836 176.107L475.345 175.358C475.544 175.077 475.828 174.868 476.155 174.762C476.482 174.656 476.835 174.658 477.161 174.769C478.1 175.088 479.024 175.406 479.948 175.772C480.282 175.902 480.564 176.14 480.746 176.45C480.928 176.759 481 177.121 480.951 177.476C480.951 177.842 480.839 178.192 480.776 178.559L480.696 179.052C480.696 179.259 480.696 179.482 480.6 179.705C480.575 179.772 480.575 179.845 480.6 179.912L480.935 180.215C481.317 180.565 481.699 180.931 482.066 181.313C482.161 181.409 482.225 181.44 482.416 181.313L484.375 180.867C484.766 180.738 485.191 180.766 485.563 180.944C485.934 181.122 486.221 181.437 486.365 181.823C486.748 182.619 487.114 183.415 487.464 184.227C487.674 184.606 487.732 185.051 487.625 185.471C487.519 185.891 487.256 186.254 486.891 186.488L486.238 186.965L485.824 187.252L485.139 187.793V188.35C485.139 188.86 485.139 189.385 485.139 189.943C485.138 189.998 485.153 190.052 485.181 190.1C485.209 190.148 485.25 190.187 485.298 190.213L485.776 190.484L486.445 190.882C486.704 191.037 486.954 191.207 487.193 191.391C487.486 191.598 487.7 191.898 487.801 192.242C487.903 192.586 487.885 192.954 487.751 193.286C487.448 194.114 487.146 194.878 486.827 195.77C486.754 195.943 486.663 196.109 486.556 196.263C486.392 196.528 486.153 196.738 485.87 196.868C485.587 196.999 485.272 197.043 484.964 196.996L483.164 196.693H482.989C482.88 196.659 482.763 196.662 482.656 196.703C482.549 196.743 482.459 196.818 482.4 196.916C482.145 197.203 481.874 197.489 481.604 197.76L481.285 198.079C481.213 198.15 481.161 198.239 481.136 198.337C481.111 198.435 481.113 198.539 481.142 198.636C481.301 199.225 481.444 199.814 481.572 200.419C481.642 200.619 481.671 200.83 481.658 201.041C481.646 201.252 481.591 201.459 481.498 201.648C481.404 201.838 481.274 202.007 481.115 202.146C480.955 202.285 480.769 202.391 480.569 202.457C479.74 202.855 478.976 203.221 478.084 203.571C477.739 203.747 477.341 203.79 476.966 203.693C476.591 203.597 476.264 203.367 476.046 203.046C475.775 202.712 475.52 202.345 475.266 201.995L475.106 201.772C474.66 201.135 474.66 201.135 473.896 201.183H472.606C472.528 201.18 472.45 201.2 472.383 201.239C472.315 201.279 472.26 201.337 472.224 201.406L471.969 201.836L471.428 202.728C471.249 202.985 471.052 203.23 470.838 203.46C470.589 203.702 470.262 203.849 469.915 203.874ZM464.309 195.579C464.778 195.583 465.228 195.765 465.567 196.088L466.969 197.394C467.166 197.573 467.32 197.796 467.416 198.045C467.513 198.293 467.551 198.561 467.526 198.827C467.526 199.034 467.526 199.241 467.526 199.448L467.239 201.215L467.446 201.311L469.931 202.25C470.061 202.112 470.178 201.963 470.281 201.804L470.791 200.976L471.061 200.53C471.223 200.247 471.454 200.009 471.732 199.839C472.011 199.669 472.328 199.573 472.654 199.559H473.96C474.471 199.446 475.005 199.509 475.476 199.737C475.947 199.965 476.328 200.346 476.556 200.817L476.715 201.04C476.954 201.374 477.193 201.709 477.447 202.027H477.591C478.419 201.693 479.183 201.327 480.027 200.944L480.186 200.849C480.178 200.785 480.178 200.721 480.186 200.658C480.059 200.085 479.932 199.511 479.788 198.954C479.683 198.596 479.676 198.216 479.768 197.855C479.861 197.493 480.049 197.164 480.314 196.9L480.648 196.55C480.887 196.311 481.142 196.072 481.365 195.802C481.611 195.482 481.947 195.242 482.329 195.111C482.712 194.981 483.124 194.967 483.515 195.069L485.394 195.372C485.394 195.276 485.489 195.197 485.489 195.165C485.808 194.337 486.111 193.573 486.413 192.681C486.199 192.504 485.964 192.354 485.712 192.235L484.598 191.583C484.318 191.419 484.085 191.187 483.92 190.909C483.756 190.63 483.666 190.314 483.658 189.99C483.658 189.449 483.658 188.924 483.658 188.398V187.921C483.656 187.673 483.707 187.428 483.809 187.203C483.911 186.977 484.06 186.777 484.247 186.615C484.502 186.392 484.757 186.185 485.012 185.994L485.474 185.676C485.665 185.532 485.856 185.405 486.047 185.246C486.112 185.2 486.17 185.147 486.222 185.087C486.232 185.018 486.232 184.948 486.222 184.88C485.888 184.083 485.521 183.287 485.155 182.539L484.948 182.444L482.973 182.889C482.651 182.97 482.314 182.964 481.995 182.871C481.676 182.779 481.387 182.604 481.158 182.364C480.808 181.998 480.425 181.647 480.059 181.313L479.741 180.995C479.539 180.808 479.384 180.577 479.287 180.32C479.19 180.063 479.155 179.787 479.183 179.514C479.198 179.252 479.23 178.992 479.279 178.734L479.374 178.208C479.374 177.89 479.486 177.572 479.518 177.253C478.626 176.839 477.718 176.521 476.81 176.202C476.635 176.457 476.476 176.68 476.333 176.919L475.95 177.508L475.504 178.177C475.375 178.388 475.196 178.564 474.982 178.689C474.768 178.815 474.526 178.884 474.278 178.893H473.578H472.304C471.931 178.932 471.555 178.865 471.22 178.698C470.884 178.532 470.603 178.274 470.408 177.954C470.17 177.603 469.931 177.269 469.676 176.951L469.262 176.393C468.32 176.648 467.424 177.045 466.602 177.572C466.588 177.714 466.588 177.858 466.602 178.001C466.602 178.336 466.746 178.67 466.825 179.004L467.001 179.816C467.071 180.077 467.075 180.35 467.011 180.612C466.946 180.874 466.817 181.115 466.634 181.313C466.077 181.902 465.504 182.491 464.93 183.049C464.628 183.316 464.235 183.458 463.831 183.447C463.577 183.469 463.321 183.469 463.067 183.447L462.35 183.319L461.427 183.176C461.427 183.176 461.315 183.176 461.252 183.303C461.188 183.431 461.013 183.892 460.901 184.211L460.439 185.548L460.232 185.867C460.359 185.993 460.504 186.1 460.662 186.185L462.255 187.172C462.472 187.312 462.653 187.502 462.78 187.727C462.908 187.951 462.979 188.204 462.987 188.462V189.131C462.987 189.529 462.987 189.911 462.987 190.309C463.028 190.722 462.95 191.139 462.76 191.508C462.571 191.878 462.28 192.186 461.92 192.395C461.443 192.713 460.997 193.031 460.551 193.382C460.439 193.382 460.423 193.493 460.423 193.493C460.806 194.321 461.14 195.085 461.49 195.865C461.534 195.961 461.588 196.051 461.65 196.136H461.968L462.494 196.009L463.736 195.722C463.919 195.645 464.112 195.597 464.309 195.579ZM473.291 195.881C471.973 195.882 470.685 195.491 469.59 194.758C468.495 194.024 467.643 192.982 467.143 191.763C466.642 190.544 466.516 189.203 466.78 187.912C467.044 186.621 467.686 185.438 468.625 184.513C469.227 183.892 469.947 183.396 470.743 183.054C471.538 182.712 472.393 182.532 473.259 182.523C474.14 182.515 475.014 182.681 475.83 183.013C476.646 183.345 477.388 183.835 478.013 184.455C478.638 185.076 479.134 185.814 479.471 186.628C479.809 187.441 479.982 188.314 479.979 189.194C480.003 190.041 479.858 190.885 479.551 191.675C479.245 192.465 478.784 193.186 478.196 193.796C477.565 194.461 476.804 194.989 475.96 195.348C475.116 195.707 474.208 195.888 473.291 195.881ZM473.211 184.115C471.891 184.174 470.646 184.745 469.74 185.707C469.248 186.168 468.854 186.722 468.58 187.337C468.306 187.953 468.159 188.617 468.147 189.29C468.151 190.629 468.684 191.912 469.629 192.86C470.575 193.808 471.856 194.344 473.195 194.353C473.894 194.364 474.586 194.228 475.228 193.954C475.87 193.68 476.447 193.273 476.922 192.761C477.363 192.308 477.709 191.772 477.942 191.185C478.174 190.597 478.287 189.969 478.275 189.338C478.278 188.665 478.146 187.999 477.889 187.378C477.631 186.757 477.253 186.193 476.776 185.719C476.299 185.245 475.733 184.87 475.11 184.617C474.487 184.364 473.82 184.236 473.148 184.243L473.211 184.115Z" fill="#D1D3D4"/>
<path d="M258.51 127.578L244.688 121.352V90.8627H172.691V137.401H244.688V127.578H258.51Z" fill="white"/>
<path d="M244.688 138.197H172.691C172.479 138.197 172.277 138.114 172.128 137.964C171.978 137.815 171.894 137.613 171.894 137.401V90.8467C171.898 90.6369 171.984 90.4368 172.132 90.2883C172.281 90.1399 172.481 90.0547 172.691 90.0507H244.688C244.899 90.0507 245.101 90.1345 245.251 90.2838C245.4 90.4331 245.484 90.6356 245.484 90.8467V120.827L258.845 126.845C259.056 126.89 259.241 127.016 259.359 127.197C259.477 127.377 259.518 127.598 259.474 127.809C259.43 128.02 259.303 128.205 259.122 128.323C258.942 128.441 258.722 128.482 258.51 128.438H245.484V137.465C245.468 137.665 245.377 137.852 245.229 137.987C245.082 138.123 244.888 138.198 244.688 138.197ZM173.487 136.605H243.891V127.578C243.891 127.367 243.975 127.164 244.125 127.015C244.274 126.866 244.476 126.782 244.688 126.782H254.8L244.369 122.005C244.229 121.944 244.11 121.844 244.025 121.717C243.94 121.59 243.894 121.441 243.891 121.289V91.6428H173.487V136.605Z" fill="#231F20"/>
<path d="M209.876 103.425L220.609 114.22C220.664 114.278 220.731 114.324 220.805 114.354C220.879 114.384 220.959 114.398 221.039 114.395H237.505C237.438 116.958 236.753 119.467 235.507 121.709C234.262 123.95 232.493 125.858 230.352 127.27C228.211 128.681 225.76 129.555 223.209 129.816C220.658 130.078 218.081 129.719 215.698 128.771C213.315 127.823 211.196 126.313 209.522 124.371C207.848 122.428 206.667 120.11 206.082 117.614C205.496 115.117 205.522 112.516 206.158 110.032C206.793 107.548 208.019 105.254 209.732 103.345L209.876 103.425Z" fill="url(#paint3_linear)"/>
<path d="M222.201 97.9V113.217H222.361H237.187C237.521 113.217 237.521 113.217 237.505 112.882C237.274 109.064 235.676 105.458 233.003 102.721C230.331 99.9846 226.762 98.3015 222.95 97.9796L222.201 97.9Z" fill="#D1D3D4"/>
<path d="M221.071 113.01V97.9159C219.288 98.0079 217.531 98.3786 215.863 99.0145C213.866 99.7965 212.047 100.971 210.512 102.469L221.071 113.01Z" fill="#D1D3D4"/>
<path d="M198.919 106.004H180.494C180.283 106.004 180.08 105.92 179.931 105.771C179.782 105.622 179.698 105.419 179.698 105.208C179.698 104.997 179.782 104.794 179.931 104.645C180.08 104.496 180.283 104.412 180.494 104.412H198.919C199.13 104.412 199.333 104.496 199.482 104.645C199.631 104.794 199.715 104.997 199.715 105.208C199.715 105.419 199.631 105.622 199.482 105.771C199.333 105.92 199.13 106.004 198.919 106.004Z" fill="#D1D3D4"/>
<path d="M198.919 113.758H180.494C180.283 113.758 180.08 113.674 179.931 113.525C179.782 113.375 179.698 113.173 179.698 112.962C179.698 112.751 179.782 112.548 179.931 112.399C180.08 112.25 180.283 112.166 180.494 112.166H198.919C199.13 112.166 199.333 112.25 199.482 112.399C199.631 112.548 199.715 112.751 199.715 112.962C199.715 113.173 199.631 113.375 199.482 113.525C199.333 113.674 199.13 113.758 198.919 113.758Z" fill="#D1D3D4"/>
<path d="M192.693 121.512H180.574C180.362 121.512 180.16 121.428 180.011 121.279C179.861 121.129 179.777 120.927 179.777 120.716C179.777 120.504 179.861 120.302 180.011 120.153C180.16 120.003 180.362 119.92 180.574 119.92H192.693C192.904 119.92 193.106 120.003 193.256 120.153C193.405 120.302 193.489 120.504 193.489 120.716C193.489 120.927 193.405 121.129 193.256 121.279C193.106 121.428 192.904 121.512 192.693 121.512Z" fill="#D1D3D4"/>
<path d="M461.236 240.955H455.328V265.045H461.236V240.955Z" fill="url(#paint4_linear)"/>
<path d="M472.128 250.906H466.22V265.045H472.128V250.906Z" fill="url(#paint5_linear)"/>
<path d="M483.021 244.426H477.113V265.045H483.021V244.426Z" fill="url(#paint6_linear)"/>
<path d="M493.93 256.192H488.022V265.045H493.93V256.192Z" fill="url(#paint7_linear)"/>
<path d="M504.822 244.426H498.914V265.045H504.822V244.426Z" fill="url(#paint8_linear)"/>
<path d="M504.679 226.355H494.678C494.478 226.351 494.288 226.269 494.148 226.126C494.008 225.983 493.93 225.791 493.93 225.591C493.928 225.491 493.945 225.392 493.982 225.3C494.019 225.207 494.074 225.123 494.143 225.052C494.213 224.98 494.296 224.924 494.388 224.885C494.48 224.847 494.579 224.827 494.678 224.827H504.679C504.882 224.827 505.076 224.907 505.22 225.051C505.363 225.194 505.444 225.388 505.444 225.591C505.439 225.792 505.358 225.984 505.215 226.127C505.073 226.269 504.881 226.351 504.679 226.355Z" fill="#D1D3D4"/>
<path d="M501.207 230.065H494.678C494.478 230.061 494.288 229.978 494.148 229.836C494.008 229.693 493.93 229.501 493.93 229.301C493.928 229.201 493.945 229.102 493.982 229.009C494.019 228.917 494.074 228.832 494.143 228.761C494.213 228.69 494.296 228.634 494.388 228.595C494.48 228.556 494.579 228.536 494.678 228.536H501.207C501.41 228.536 501.605 228.617 501.748 228.76C501.891 228.904 501.972 229.098 501.972 229.301C501.968 229.502 501.886 229.694 501.743 229.837C501.601 229.979 501.409 230.061 501.207 230.065Z" fill="#D1D3D4"/>
<path d="M491.7 245.286C488.34 245.286 485.521 241.672 483.244 238.774C482.05 237.182 480.569 235.351 479.868 235.351C478.52 235.622 477.242 236.164 476.11 236.943C474.023 238.153 471.682 239.522 469.341 239.395C465.185 239.172 457.86 230.654 457.047 229.683C456.982 229.608 456.931 229.521 456.9 229.426C456.868 229.332 456.855 229.232 456.863 229.133C456.87 229.033 456.897 228.936 456.943 228.848C456.988 228.759 457.051 228.68 457.127 228.616C457.284 228.488 457.486 228.426 457.688 228.444C457.89 228.462 458.077 228.558 458.21 228.712C460.312 231.195 466.459 237.707 469.357 237.882C471.49 237.654 473.526 236.875 475.266 235.622C476.603 234.68 478.13 234.044 479.741 233.759C481.126 233.759 482.591 235.51 484.375 237.771C486.477 240.462 489.152 243.821 491.764 243.694C494.057 243.582 495.14 241.592 496.414 239.284C497.688 236.975 498.994 234.507 501.717 234.061C501.915 234.028 502.118 234.072 502.284 234.185C502.45 234.298 502.566 234.47 502.609 234.666C502.646 234.865 502.604 235.07 502.49 235.237C502.377 235.404 502.202 235.519 502.004 235.558C499.981 235.94 498.898 237.914 497.752 240.016C496.446 242.388 494.981 245.063 491.844 245.206L491.7 245.286Z" fill="#D1D3D4"/>
<path d="M509.871 265.809H450.55C450.339 265.809 450.136 265.725 449.987 265.576C449.838 265.426 449.754 265.224 449.754 265.013C449.754 264.802 449.838 264.599 449.987 264.45C450.136 264.301 450.339 264.217 450.55 264.217H509.871C510.082 264.217 510.284 264.301 510.434 264.45C510.583 264.599 510.667 264.802 510.667 265.013C510.667 265.224 510.583 265.426 510.434 265.576C510.284 265.725 510.082 265.809 509.871 265.809Z" fill="#D1D3D4"/>
<path d="M457.764 230.972C457.418 230.972 457.079 230.87 456.791 230.677C456.503 230.485 456.278 230.211 456.146 229.891C456.013 229.571 455.978 229.219 456.046 228.879C456.114 228.54 456.28 228.228 456.525 227.983C456.77 227.738 457.083 227.571 457.422 227.503C457.762 227.436 458.114 227.471 458.434 227.603C458.755 227.736 459.028 227.96 459.221 228.248C459.413 228.536 459.516 228.875 459.516 229.221C459.518 229.452 459.474 229.68 459.387 229.894C459.3 230.107 459.171 230.301 459.007 230.464C458.844 230.627 458.65 230.756 458.437 230.844C458.223 230.931 457.995 230.975 457.764 230.972ZM457.764 228.998C457.705 228.998 457.648 229.022 457.606 229.064C457.565 229.105 457.541 229.162 457.541 229.221C457.541 229.476 458.003 229.476 458.003 229.221C457.999 229.161 457.972 229.104 457.928 229.062C457.883 229.021 457.825 228.998 457.764 228.998Z" fill="#D1D3D4"/>
<path d="M501.94 236.625C501.475 236.625 501.03 236.44 500.701 236.112C500.373 235.783 500.188 235.338 500.188 234.873C500.188 234.409 500.373 233.963 500.701 233.635C501.03 233.306 501.475 233.122 501.94 233.122C502.405 233.122 502.85 233.306 503.179 233.635C503.507 233.963 503.692 234.409 503.692 234.873C503.692 235.338 503.507 235.783 503.179 236.112C502.85 236.44 502.405 236.625 501.94 236.625ZM501.94 234.65C501.881 234.65 501.824 234.674 501.782 234.716C501.741 234.757 501.717 234.814 501.717 234.873C501.717 235.128 502.163 235.128 502.163 234.873C502.163 234.814 502.139 234.757 502.098 234.716C502.056 234.674 501.999 234.65 501.94 234.65Z" fill="#D1D3D4"/>
<path d="M481.476 164.197V159.676C479.884 159.23 478.291 158.896 476.699 158.37C473.7 157.414 471.113 155.473 469.357 152.861C467.912 150.579 467.175 147.92 467.239 145.219H476.046C476.11 146.747 476.672 148.212 477.647 149.391C478.621 150.57 479.955 151.397 481.444 151.747V139.774C479.677 139.264 477.925 138.787 476.173 138.182C474.255 137.637 472.496 136.637 471.045 135.268C469.548 133.771 468.551 131.846 468.195 129.759C467.677 127.198 467.87 124.544 468.752 122.085C469.394 120.313 470.421 118.705 471.76 117.378C473.098 116.051 474.714 115.038 476.492 114.411C477.955 113.945 479.444 113.562 480.951 113.264L481.476 113.153V107.182H489.725V107.755C489.725 109.475 489.725 111.179 489.725 112.882C489.725 113.312 489.869 113.439 490.267 113.535C493.089 114.071 495.733 115.302 497.959 117.117C500.297 119.054 501.849 121.777 502.322 124.776C502.465 125.588 502.529 126.368 502.641 127.291H493.675C493.652 126.068 493.272 124.879 492.582 123.869C491.891 122.859 490.921 122.073 489.789 121.607V132.752L490.761 132.975C493.18 133.45 495.537 134.203 497.784 135.22C499.473 135.955 500.932 137.133 502.006 138.63C503.08 140.127 503.728 141.887 503.883 143.722C504.393 147.138 503.56 150.619 501.558 153.434C499.91 155.735 497.582 157.461 494.901 158.37C493.309 158.943 491.525 159.309 489.741 159.803V164.181L481.476 164.197ZM489.757 141.493V151.89C491.094 151.697 492.354 151.147 493.404 150.298C495.315 148.706 496 144.805 493.197 143.101C492.081 142.502 490.933 141.966 489.757 141.493ZM481.444 130.858V120.827C480.352 121.295 479.289 121.826 478.259 122.419C477.672 122.835 477.198 123.391 476.879 124.036C476.561 124.681 476.408 125.396 476.435 126.115C476.462 126.834 476.668 127.535 477.033 128.154C477.399 128.774 477.914 129.293 478.53 129.664C479.47 130.141 480.441 130.444 481.444 130.858Z" fill="url(#paint9_linear)"/>
<path d="M489.726 164.993H481.476C481.267 164.989 481.066 164.904 480.918 164.756C480.769 164.607 480.684 164.407 480.68 164.197V160.297L479.741 160.058C478.61 159.771 477.527 159.485 476.444 159.118C473.279 158.099 470.548 156.047 468.689 153.291C467.153 150.884 466.371 148.073 466.443 145.219C466.439 145.113 466.456 145.008 466.495 144.909C466.533 144.81 466.592 144.721 466.666 144.646C466.741 144.571 466.831 144.513 466.93 144.474C467.028 144.436 467.134 144.418 467.239 144.423H476.046C476.24 144.417 476.429 144.485 476.577 144.611C476.724 144.738 476.819 144.915 476.842 145.107C476.875 146.298 477.252 147.453 477.927 148.433C478.603 149.414 479.548 150.177 480.648 150.632V140.379L479.645 140.092C478.403 139.726 477.161 139.376 475.935 138.994C473.89 138.383 472.023 137.291 470.488 135.809C468.858 134.194 467.782 132.104 467.415 129.839C466.866 127.134 467.07 124.331 468.004 121.735C468.69 119.862 469.78 118.163 471.198 116.759C472.615 115.356 474.325 114.282 476.205 113.615C477.244 113.246 478.309 112.954 479.39 112.739L480.696 112.452V107.182C480.696 106.971 480.78 106.769 480.929 106.619C481.079 106.47 481.281 106.386 481.492 106.386H489.742C489.953 106.386 490.155 106.47 490.305 106.619C490.454 106.769 490.538 106.971 490.538 107.182V109.188C490.538 110.383 490.538 111.577 490.538 112.771C493.462 113.337 496.198 114.623 498.5 116.512C500.984 118.563 502.632 121.451 503.134 124.632C503.246 125.205 503.31 125.795 503.373 126.384L503.469 127.196C503.48 127.307 503.468 127.42 503.433 127.527C503.398 127.634 503.341 127.732 503.266 127.816C503.192 127.9 503.1 127.967 502.998 128.014C502.896 128.061 502.785 128.086 502.673 128.087H493.675C493.473 128.084 493.279 128.005 493.132 127.867C492.985 127.729 492.895 127.54 492.879 127.339C492.87 126.482 492.658 125.639 492.259 124.881C491.86 124.122 491.287 123.469 490.586 122.976V132.131H490.92C493.403 132.61 495.82 133.386 498.118 134.44C499.932 135.227 501.498 136.491 502.651 138.098C503.803 139.704 504.499 141.593 504.663 143.563C505.212 147.177 504.326 150.862 502.195 153.832C500.459 156.272 497.995 158.1 495.156 159.055C493.993 159.453 492.831 159.755 491.589 160.074L490.49 160.392V164.166C490.494 164.27 490.478 164.375 490.442 164.473C490.406 164.571 490.35 164.661 490.279 164.738C490.208 164.815 490.123 164.877 490.028 164.921C489.933 164.965 489.83 164.989 489.726 164.993ZM482.273 163.401H488.897V159.819C488.898 159.645 488.957 159.475 489.063 159.337C489.17 159.199 489.318 159.1 489.487 159.055L491.079 158.609C492.289 158.306 493.42 158.004 494.535 157.622C497.054 156.768 499.242 155.148 500.793 152.989C502.695 150.342 503.479 147.053 502.975 143.834C502.846 142.13 502.252 140.495 501.258 139.106C500.264 137.716 498.908 136.626 497.338 135.953C495.143 134.96 492.839 134.228 490.474 133.771L489.773 133.612L489.503 133.532C489.327 133.496 489.169 133.4 489.056 133.261C488.943 133.122 488.881 132.948 488.882 132.768V121.623C488.885 121.488 488.919 121.356 488.983 121.237C489.047 121.118 489.137 121.016 489.248 120.939C489.365 120.876 489.497 120.843 489.63 120.843C489.763 120.843 489.895 120.876 490.012 120.939C491.159 121.411 492.159 122.181 492.91 123.169C493.66 124.157 494.133 125.327 494.28 126.559H501.637C501.637 126.017 501.526 125.492 501.43 124.967C500.988 122.154 499.532 119.6 497.338 117.786C495.209 116.059 492.688 114.883 489.996 114.363C489.652 114.331 489.335 114.163 489.114 113.898C488.893 113.632 488.787 113.29 488.818 112.946C488.818 111.704 488.818 110.478 488.818 109.252V108.042H482.161V113.217C482.164 113.401 482.102 113.58 481.986 113.723C481.869 113.866 481.705 113.963 481.524 113.997H481.333H481.031L479.613 114.315C478.612 114.505 477.627 114.771 476.667 115.111C474.997 115.702 473.478 116.655 472.22 117.902C470.962 119.149 469.995 120.659 469.389 122.324C468.546 124.643 468.37 127.153 468.88 129.568C469.188 131.513 470.108 133.309 471.507 134.695C472.853 135.979 474.494 136.914 476.285 137.417C477.495 137.815 478.721 138.166 479.964 138.516L481.556 138.962C481.721 139.01 481.867 139.111 481.97 139.248C482.073 139.386 482.129 139.554 482.129 139.726V151.699C482.13 151.819 482.103 151.937 482.051 152.045C481.998 152.152 481.922 152.247 481.827 152.32C481.729 152.397 481.615 152.45 481.493 152.475C481.372 152.5 481.246 152.496 481.126 152.463C479.634 152.097 478.286 151.291 477.258 150.15C476.23 149.009 475.569 147.585 475.361 146.063H468.052C468.121 148.325 468.803 150.526 470.026 152.431C471.689 154.895 474.136 156.725 476.97 157.622C477.989 157.972 479.024 158.243 480.155 158.529L481.747 158.927C481.913 158.976 482.058 159.076 482.161 159.214C482.265 159.352 482.32 159.519 482.32 159.692L482.273 163.401ZM489.757 152.686C489.57 152.689 489.388 152.62 489.248 152.495C489.161 152.419 489.091 152.326 489.042 152.222C488.993 152.118 488.965 152.005 488.961 151.89V141.493C488.962 141.36 488.997 141.229 489.061 141.113C489.126 140.996 489.219 140.898 489.331 140.827C489.444 140.756 489.572 140.714 489.705 140.705C489.838 140.696 489.971 140.721 490.092 140.777L491.207 141.254C492.036 141.575 492.84 141.958 493.611 142.401C494.264 142.796 494.811 143.345 495.202 144C495.594 144.655 495.818 145.396 495.857 146.158C495.924 147.05 495.783 147.946 495.446 148.774C495.109 149.603 494.584 150.342 493.914 150.935C492.758 151.885 491.365 152.501 489.885 152.718L489.757 152.686ZM490.554 142.703V150.839C491.411 150.599 492.209 150.181 492.895 149.613C493.364 149.184 493.731 148.656 493.968 148.066C494.205 147.476 494.306 146.84 494.264 146.206C494.243 145.7 494.096 145.206 493.838 144.77C493.579 144.334 493.217 143.969 492.783 143.706C492.075 143.311 491.341 142.965 490.586 142.671L490.554 142.703ZM481.445 131.733C481.345 131.754 481.242 131.754 481.142 131.733L480.218 131.367C479.518 131.096 478.865 130.842 478.212 130.523C477.481 130.146 476.862 129.582 476.42 128.889C475.978 128.195 475.728 127.397 475.696 126.575C475.625 125.677 475.787 124.775 476.166 123.958C476.546 123.141 477.13 122.435 477.861 121.91C478.559 121.459 479.294 121.071 480.059 120.747L481.094 120.254C481.215 120.189 481.351 120.158 481.488 120.163C481.625 120.168 481.758 120.208 481.875 120.281C481.991 120.354 482.086 120.456 482.15 120.577C482.214 120.698 482.246 120.833 482.241 120.97V131.001C482.243 131.131 482.211 131.258 482.15 131.373C482.089 131.487 481.999 131.584 481.89 131.654C481.754 131.726 481.598 131.753 481.445 131.733ZM480.648 122.18C479.991 122.463 479.357 122.798 478.753 123.183C478.264 123.551 477.875 124.035 477.619 124.591C477.363 125.147 477.25 125.757 477.288 126.368C477.299 126.905 477.452 127.429 477.732 127.888C478.012 128.347 478.408 128.723 478.881 128.979C479.436 129.257 480.004 129.507 480.585 129.727L480.648 122.18Z" fill="#231F20"/>
<path d="M379.365 96.0213C379.365 96.0213 429.975 93.5216 440.215 126.957V193.827C440.215 193.827 400.896 162.812 379.365 173.129V96.0213Z" fill="#D1D3D4"/>
<path d="M440.215 194.496C440.035 194.494 439.862 194.432 439.721 194.321C439.323 194.019 400.514 163.736 379.716 173.782C379.599 173.849 379.468 173.885 379.333 173.885C379.199 173.885 379.067 173.849 378.951 173.782C378.836 173.709 378.741 173.607 378.674 173.488C378.607 173.369 378.571 173.234 378.569 173.098V96.0213C378.569 95.8155 378.648 95.6177 378.791 95.4693C378.933 95.3209 379.128 95.2334 379.333 95.2252C379.843 95.2252 430.692 93.0758 440.979 126.654C440.987 126.734 440.987 126.814 440.979 126.893V193.764C440.979 193.913 440.938 194.059 440.859 194.186C440.78 194.313 440.667 194.415 440.533 194.48C440.429 194.504 440.321 194.509 440.215 194.496ZM389.621 170.12C397.472 170.12 407.043 173.018 418.286 178.782C425.688 182.659 432.775 187.109 439.482 192.092V126.957C430.15 96.8651 386.531 96.6104 380.225 96.7059V171.76C383.221 170.61 386.412 170.053 389.621 170.12Z" fill="#231F20"/>
<path d="M429.975 174.021C429.791 174.021 429.613 173.958 429.471 173.842C429.329 173.726 429.231 173.564 429.195 173.384C426.28 159.182 420.563 139.025 416.996 138.691C415.117 138.5 414.082 143.054 413.174 147.066C412.139 151.603 411.168 155.902 408.651 156.889C408.054 157.09 407.415 157.134 406.796 157.017C406.177 156.9 405.599 156.626 405.116 156.221C397.265 150.951 389 117.627 388.65 116.21C388.601 116.003 388.636 115.786 388.746 115.604C388.856 115.423 389.033 115.291 389.239 115.239C389.444 115.191 389.659 115.226 389.838 115.336C390.017 115.447 390.145 115.623 390.194 115.828C390.29 116.162 398.65 149.979 405.992 154.899C406.272 155.148 406.607 155.326 406.971 155.418C407.334 155.509 407.714 155.512 408.078 155.425C409.798 154.724 410.769 150.473 411.613 146.716C412.776 141.605 413.843 136.78 417.139 137.163C423.191 137.736 429.545 167.223 430.755 173.129C430.776 173.232 430.777 173.337 430.757 173.44C430.737 173.543 430.697 173.641 430.639 173.728C430.582 173.815 430.507 173.89 430.421 173.949C430.334 174.007 430.237 174.048 430.134 174.069L429.975 174.021Z" fill="#231F20"/>
<path d="M440.215 126.957C440.215 126.957 436.743 154.215 419.767 160.058V219.302C419.767 219.302 432.507 213.538 440.215 193.827V126.957Z" fill="white"/>
<path d="M419.767 220.05C419.556 220.05 419.353 219.966 419.204 219.817C419.055 219.668 418.971 219.465 418.971 219.254V159.994C418.974 159.829 419.028 159.669 419.125 159.536C419.222 159.402 419.357 159.301 419.512 159.246C435.819 153.625 439.387 127.052 439.418 126.798C439.426 126.696 439.455 126.596 439.502 126.506C439.549 126.415 439.614 126.334 439.692 126.269C439.771 126.204 439.862 126.155 439.96 126.125C440.058 126.096 440.161 126.086 440.263 126.097C440.464 126.113 440.652 126.203 440.791 126.35C440.929 126.498 441.008 126.691 441.011 126.893V193.764C441.026 193.859 441.026 193.955 441.011 194.05C433.319 213.92 420.675 219.796 420.149 220.034C420.025 220.068 419.894 220.074 419.767 220.05ZM420.563 160.551V217.869C423.748 215.943 433.303 209.24 439.418 193.509V134.599C437.109 143.165 431.822 156.332 420.563 160.551Z" fill="#231F20"/>
<path d="M411.518 111.035C411.365 111.04 411.214 110.995 411.088 110.908C408.285 109.146 405.134 108.011 401.851 107.58C401.747 107.57 401.645 107.54 401.552 107.49C401.459 107.441 401.377 107.373 401.31 107.292C401.244 107.21 401.194 107.117 401.164 107.016C401.134 106.915 401.124 106.809 401.135 106.705C401.159 106.498 401.261 106.308 401.422 106.175C401.582 106.041 401.787 105.975 401.995 105.988C405.539 106.441 408.942 107.664 411.964 109.571C412.139 109.69 412.261 109.874 412.303 110.082C412.344 110.291 412.303 110.507 412.187 110.685C412.111 110.792 412.011 110.88 411.895 110.941C411.778 111.002 411.649 111.034 411.518 111.035Z" fill="#231F20"/>
<path d="M410.865 116.273C410.708 116.27 410.554 116.226 410.419 116.146C408.607 114.953 406.603 114.08 404.495 113.567C404.39 113.55 404.29 113.513 404.2 113.457C404.11 113.402 404.031 113.329 403.969 113.244C403.907 113.158 403.862 113.061 403.838 112.958C403.813 112.855 403.809 112.748 403.826 112.643C403.843 112.539 403.88 112.439 403.935 112.348C403.991 112.258 404.064 112.18 404.149 112.118C404.235 112.056 404.332 112.011 404.435 111.987C404.538 111.962 404.645 111.958 404.75 111.975C407.079 112.518 409.294 113.467 411.295 114.777C411.472 114.891 411.597 115.071 411.641 115.277C411.686 115.483 411.648 115.698 411.534 115.875C411.465 115.992 411.367 116.09 411.25 116.16C411.133 116.229 411.001 116.268 410.865 116.273Z" fill="#231F20"/>
<path d="M353.535 172.97L361.402 167.875C363.886 166.283 366.705 161.507 368.759 161.73C370.814 161.952 366.402 167.605 366.402 167.605C366.402 167.605 374.715 162.701 377.104 162.828C379.493 162.956 380.289 167.095 379.588 168.273C378.888 169.452 372.024 171.665 369.348 173.766C365.755 176.13 362.034 178.294 358.201 180.246" fill="white"/>
<path d="M358.169 181.09C357.993 181.088 357.823 181.027 357.685 180.917C357.547 180.807 357.449 180.655 357.407 180.483C357.366 180.312 357.382 180.132 357.453 179.971C357.525 179.81 357.648 179.677 357.803 179.594C361.587 177.678 365.261 175.551 368.807 173.225C370.73 171.965 372.773 170.898 374.906 170.041C376.301 169.501 377.632 168.807 378.872 167.971C379.115 166.946 378.967 165.868 378.458 164.946C378.341 164.642 378.148 164.374 377.897 164.167C377.645 163.961 377.345 163.823 377.024 163.768C375.432 163.656 369.89 166.586 366.753 168.433C366.593 168.527 366.406 168.563 366.222 168.534C366.039 168.505 365.872 168.413 365.749 168.273C365.633 168.129 365.57 167.949 365.57 167.764C365.57 167.578 365.633 167.399 365.749 167.254C366.928 165.898 367.851 164.339 368.473 162.653C367.629 162.764 366.227 164.245 365.081 165.598C364.148 166.754 363.079 167.791 361.896 168.687L354.029 173.782L353.169 172.445C353.169 172.445 358.551 168.942 361.036 167.35C362.121 166.531 363.105 165.585 363.966 164.532C365.67 162.637 367.294 160.854 368.919 161.077C369.165 161.097 369.401 161.185 369.601 161.331C369.801 161.477 369.956 161.676 370.049 161.905C370.191 163.144 369.842 164.39 369.078 165.376C371.737 163.959 375.448 162.191 377.04 162.191H377.152C377.754 162.25 378.33 162.47 378.818 162.829C379.306 163.188 379.687 163.671 379.923 164.229C380.321 164.925 380.557 165.701 380.615 166.5C380.673 167.299 380.551 168.101 380.257 168.846C379.779 169.595 378.33 170.264 375.623 171.505C373.602 172.33 371.666 173.348 369.842 174.546C366.22 176.95 362.461 179.14 358.583 181.106C358.447 181.141 358.303 181.135 358.169 181.09Z" fill="#231F20"/>
<path d="M360.606 140.729C363.198 139.339 365.938 138.244 368.775 137.465C371.96 136.828 376.021 136.605 375.289 135.188C374.556 133.771 367.008 134.758 366.976 134.774C370.431 134.313 373.696 123.773 374.731 121.209C374.921 120.801 375.014 120.354 375.002 119.904C374.983 119.679 374.885 119.469 374.724 119.311C374.563 119.153 374.351 119.058 374.126 119.044C373.816 119.095 373.535 119.252 373.33 119.49C367.533 124.823 362.341 130.348 356.29 135.411C355.685 136.016 360.606 140.729 360.606 140.729Z" fill="white"/>
<path d="M360.606 141.525C360.398 141.523 360.2 141.444 360.048 141.302C355.43 136.86 355.43 135.905 355.446 135.586C355.463 135.325 355.569 135.077 355.749 134.886C359.459 131.701 362.915 128.39 366.243 125.142C368.361 123.088 370.543 120.97 372.788 118.901C373.126 118.535 373.584 118.303 374.078 118.248C374.514 118.239 374.935 118.4 375.254 118.698C375.572 118.995 375.761 119.405 375.782 119.84C375.831 120.426 375.721 121.015 375.464 121.544C375.32 121.91 375.129 122.419 374.906 123.04C373.441 127.1 371.721 131.351 369.842 133.724C372.709 133.532 375.4 133.724 376.005 134.87C376.107 135.07 376.16 135.291 376.16 135.515C376.16 135.739 376.107 135.96 376.005 136.16C375.48 137.163 373.855 137.481 371.021 137.927L368.903 138.293C366.14 139.06 363.47 140.128 360.94 141.477C360.834 141.519 360.719 141.535 360.606 141.525ZM357.15 135.777C358.237 137.202 359.441 138.533 360.749 139.758C363.245 138.435 365.884 137.404 368.616 136.685C369.333 136.542 370.081 136.43 370.798 136.303C372.051 136.168 373.286 135.89 374.476 135.475C372.026 135.09 369.529 135.117 367.087 135.555C366.876 135.584 366.662 135.529 366.491 135.4C366.321 135.272 366.209 135.081 366.179 134.87C366.15 134.659 366.205 134.445 366.334 134.274C366.462 134.104 366.653 133.992 366.864 133.962C369.348 133.628 372.295 125.508 373.409 122.435C373.648 121.798 373.839 121.257 373.983 120.843C374.127 120.562 374.203 120.251 374.206 119.935C374.203 119.901 374.193 119.868 374.177 119.837C374.16 119.807 374.138 119.781 374.11 119.76C374.04 119.854 373.96 119.939 373.871 120.015C371.642 122.069 369.46 124.187 367.358 126.224C364.109 129.441 360.749 132.705 357.15 135.777Z" fill="#231F20"/>
<path d="M306.715 143.69C306.715 143.69 333.151 150.807 337.355 150.266L355.414 134.344L364.014 141.573C364.014 141.573 357.341 155.648 349.57 163.322C341.798 170.996 297.543 167.414 297.543 167.414L306.715 143.69Z" fill="white"/>
<path d="M319.296 169.069C308.149 169.069 298.323 168.289 297.479 168.226C297.356 168.218 297.237 168.18 297.131 168.117C297.026 168.053 296.938 167.965 296.874 167.859C296.819 167.748 296.791 167.625 296.791 167.501C296.791 167.377 296.819 167.254 296.874 167.143L306.047 143.404C306.118 143.22 306.256 143.069 306.432 142.981C306.609 142.893 306.812 142.873 307.002 142.926C314.009 144.805 332.482 149.502 336.861 149.502H337.1L354.968 133.771C355.111 133.645 355.295 133.575 355.486 133.575C355.677 133.575 355.861 133.645 356.003 133.771L364.603 141C364.739 141.113 364.833 141.269 364.87 141.442C364.908 141.615 364.887 141.795 364.81 141.955C364.539 142.528 357.994 156.284 350.207 163.927C345.923 168.066 331.845 169.069 319.296 169.069ZM298.673 166.761C305.441 167.238 342.244 169.515 349.012 162.828C355.78 156.141 361.752 144.518 363.026 141.844L355.43 135.475L337.913 150.935C337.791 151.039 337.642 151.106 337.483 151.126C333.501 151.635 311.525 145.856 307.225 144.757L298.673 166.761Z" fill="#231F20"/>
<path d="M346.034 306.266C346.034 306.266 340.556 311.408 340.922 314.226C341.289 317.044 357.66 335.45 359.634 333.651C361.609 331.852 356.194 316.137 356.194 316.137L346.034 306.266Z" fill="#231F20"/>
<path d="M359.268 334.526C359 334.52 358.736 334.466 358.488 334.367C354.379 332.871 340.524 317.06 340.142 314.274C339.728 311.201 344.92 306.234 345.493 305.692C345.641 305.551 345.838 305.473 346.042 305.473C346.247 305.473 346.444 305.551 346.592 305.692L356.72 315.468C356.812 315.552 356.882 315.655 356.927 315.771C358.599 320.675 362.278 332.266 360.112 334.192C359.884 334.407 359.582 334.527 359.268 334.526ZM346.034 307.364C344.06 309.338 341.496 312.491 341.719 314.067C342.101 316.901 356.593 332.52 359.156 332.934C359.809 331.676 358.185 324.321 355.494 316.471L346.034 307.364Z" fill="#231F20"/>
<path d="M354.076 293.114L346.034 306.266L356.194 316.041L366.562 300.773L354.076 293.114Z" fill="white"/>
<path d="M356.194 316.838C355.987 316.839 355.787 316.759 355.637 316.615L345.477 306.871C345.349 306.744 345.267 306.578 345.244 306.399C345.221 306.22 345.258 306.039 345.35 305.883L353.312 292.732C353.364 292.64 353.435 292.56 353.52 292.497C353.605 292.434 353.703 292.39 353.806 292.366C353.908 292.341 354.014 292.337 354.118 292.353C354.222 292.37 354.321 292.407 354.411 292.462L366.896 300.12C366.988 300.176 367.069 300.249 367.132 300.337C367.194 300.425 367.239 300.524 367.262 300.629C367.286 300.736 367.286 300.846 367.265 300.953C367.243 301.06 367.198 301.161 367.135 301.25L356.847 316.424C356.782 316.518 356.697 316.597 356.598 316.655C356.499 316.713 356.388 316.748 356.274 316.758L356.194 316.838ZM347.054 306.138L356.067 314.8L365.431 301.011L354.283 294.197L347.054 306.138Z" fill="#231F20"/>
<path d="M330.507 210.402C330.507 210.402 375.798 227.916 384.079 236.561C392.36 245.206 378.712 298.002 366.386 306.536L350.015 295.2C350.015 295.2 364.348 255.189 361.37 251.384C358.392 247.579 320.395 237.898 320.395 237.898L298.625 206.565L330.507 210.402Z" fill="#231F20"/>
<path d="M366.386 307.332C366.226 307.333 366.07 307.283 365.941 307.189L349.57 295.853C349.426 295.752 349.319 295.608 349.265 295.441C349.21 295.275 349.211 295.095 349.267 294.929C356.258 275.473 362.453 254.043 360.749 251.941C358.647 249.298 335.349 242.595 320.204 238.726C320.016 238.68 319.852 238.566 319.742 238.408L297.973 207.122C297.886 206.996 297.837 206.848 297.833 206.695C297.828 206.542 297.868 206.391 297.947 206.26C298.026 206.129 298.141 206.023 298.278 205.956C298.415 205.889 298.569 205.862 298.721 205.88L330.571 209.669H330.762C332.625 210.386 376.324 227.406 384.605 236.02C387.79 239.204 387.63 247.435 387.009 253.74C385.082 272.942 375.655 301.075 366.8 307.205C366.678 307.287 366.534 307.332 366.386 307.332ZM350.971 294.898L366.37 305.565C374.763 299.053 383.601 272.13 385.48 253.565C386.325 245.143 385.624 239.236 383.522 237.102C375.639 228.919 332.641 212.074 330.332 211.166L300.298 207.6L320.905 237.198C325.953 238.487 358.981 247.069 362.007 250.89C362.533 251.575 364.555 256.941 350.971 294.898Z" fill="#231F20"/>
<path d="M311.875 325.324L308.833 337.981L320.507 345.433L325.491 328.062L311.875 325.324Z" fill="white"/>
<path d="M320.507 346.213C320.356 346.215 320.207 346.177 320.077 346.101L308.404 338.714C308.265 338.623 308.159 338.491 308.099 338.337C308.039 338.183 308.029 338.014 308.069 337.854L311.111 325.196C311.131 325.096 311.172 325.001 311.23 324.917C311.288 324.833 311.362 324.762 311.448 324.707C311.534 324.652 311.631 324.615 311.731 324.598C311.832 324.581 311.935 324.584 312.034 324.607L325.65 327.346C325.76 327.363 325.864 327.405 325.955 327.468C326.046 327.532 326.122 327.615 326.176 327.712C326.232 327.807 326.268 327.913 326.281 328.022C326.295 328.132 326.286 328.243 326.255 328.349L321.271 345.703C321.241 345.824 321.182 345.935 321.098 346.026C321.015 346.118 320.91 346.188 320.793 346.229L320.507 346.213ZM309.741 337.615L320.045 344.175L324.488 328.667L312.48 326.247L309.741 337.615Z" fill="#231F20"/>
<path d="M283.306 216.818C283.306 216.818 278.99 236.975 290.217 238.679C310.41 241.735 320.634 257.148 320.745 267.656C320.921 282.288 308.34 327.425 308.34 327.425L329.042 335.131C329.042 335.131 351.895 276.078 348.582 259.886C345.27 243.694 319.408 207.647 319.408 207.647L283.306 216.818Z" fill="#231F20"/>
<path d="M329.042 335.927C328.947 335.943 328.85 335.943 328.756 335.927L308.053 328.221C307.869 328.15 307.718 328.012 307.63 327.836C307.542 327.659 307.522 327.456 307.575 327.266C307.703 326.82 320.124 282.065 319.965 267.704C319.774 251.527 302.033 241.321 290.09 239.506C288.917 239.345 287.792 238.939 286.788 238.313C285.783 237.688 284.922 236.857 284.261 235.876C279.866 229.508 282.414 217.232 282.525 216.77C282.557 216.624 282.629 216.49 282.733 216.383C282.837 216.276 282.969 216.201 283.114 216.165L319.216 206.995C319.371 206.954 319.535 206.962 319.685 207.016C319.836 207.07 319.966 207.168 320.06 207.297C321.112 208.778 346.05 243.678 349.362 259.838C352.675 275.999 330.714 333.077 329.775 335.529C329.703 335.658 329.596 335.764 329.466 335.834C329.336 335.905 329.189 335.937 329.042 335.927ZM309.295 326.948L328.58 334.128C331.176 327.282 350.875 274.852 347.802 260.045C344.728 245.238 322.035 212.71 319.137 208.555L284.102 217.471C283.688 219.764 282.127 229.778 285.694 234.985C286.232 235.79 286.937 236.47 287.762 236.979C288.586 237.487 289.511 237.812 290.472 237.93C311.795 241.115 321.557 257.291 321.685 267.688C321.685 281.396 310.935 320.961 309.295 326.948Z" fill="#231F20"/>
<path d="M293.88 127.323C283.417 124.505 286.284 107.962 288.338 100.129C288.622 98.4403 289.443 96.8881 290.679 95.7028C291.317 95.15 292.148 94.8731 292.99 94.9328C293.832 94.9925 294.616 95.384 295.17 96.0213C294.931 93.8241 297.081 92.1046 299.151 91.2448C303.077 89.708 307.439 89.708 311.365 91.2448C314.073 92.3434 316.525 94.1584 319.328 94.6838C322.131 95.2093 325.794 93.7445 326.08 90.8467C327.373 92.183 328.335 93.8038 328.888 95.579C329.441 97.3542 329.57 99.2343 329.265 101.068C328.58 105.065 326.08 106.848 323.421 109.364C320.761 111.879 320.092 115.812 316.907 117.897C311.063 121.671 308.005 126.957 300.632 127.705C298.377 127.988 296.089 127.858 293.88 127.323Z" fill="white"/>
<path d="M298.211 128.629C296.687 128.648 295.166 128.466 293.689 128.087C282.334 125.046 285.615 107.389 287.558 99.938C287.887 98.091 288.803 96.3993 290.169 95.1137C290.65 94.7345 291.203 94.4583 291.795 94.3021C292.387 94.146 293.004 94.1134 293.609 94.2062C293.932 94.2657 294.247 94.3618 294.549 94.4928C294.958 93.5787 295.553 92.7597 296.296 92.0882C297.039 91.4166 297.914 90.907 298.864 90.592C302.961 88.9934 307.508 88.9934 311.604 90.592C312.624 91.006 313.611 91.5155 314.551 92.009C316.088 92.8983 317.745 93.5631 319.471 93.9833C320.253 94.1253 321.055 94.1112 321.831 93.9418C322.608 93.7723 323.343 93.451 323.994 92.9962C324.35 92.7495 324.651 92.4307 324.876 92.0603C325.101 91.69 325.245 91.2766 325.3 90.8468C325.316 90.6977 325.374 90.5562 325.467 90.4386C325.561 90.3211 325.685 90.2322 325.826 90.1823C325.968 90.1324 326.121 90.1234 326.267 90.1565C326.413 90.1895 326.547 90.2632 326.654 90.3691C328.043 91.7934 329.079 93.5232 329.679 95.4199C330.279 97.3166 330.426 99.3274 330.109 101.291C329.456 105.128 327.338 107.023 324.886 109.252L324.026 110.048C322.945 111.138 322.033 112.383 321.319 113.742C320.366 115.635 318.973 117.273 317.258 118.518C315.531 119.688 313.887 120.976 312.337 122.371C309.025 125.221 305.967 127.912 300.632 128.454C299.829 128.556 299.021 128.614 298.211 128.629ZM292.924 95.7188C292.291 95.7164 291.675 95.9235 291.173 96.3079C290.083 97.4046 289.36 98.8117 289.102 100.336C287.287 107.326 284.118 123.868 294.087 126.543C296.197 127.052 298.381 127.182 300.537 126.925C305.314 126.431 308.101 124.011 311.366 121.209C312.966 119.761 314.669 118.431 316.462 117.229C317.994 116.109 319.238 114.641 320.092 112.946C320.877 111.447 321.886 110.078 323.086 108.886L323.962 108.09C326.287 105.988 328.135 104.332 328.74 101.052C328.955 99.5575 328.864 98.0344 328.473 96.5756C328.081 95.1167 327.397 93.7527 326.462 92.5663C326.112 93.2528 325.604 93.8473 324.981 94.3017C324.153 94.8856 323.217 95.2988 322.227 95.5175C321.237 95.7362 320.214 95.7559 319.217 95.5755C317.346 95.161 315.547 94.4687 313.882 93.5216C312.974 93.0599 312.018 92.5663 311.079 92.1842C307.338 90.7154 303.179 90.7154 299.438 92.1842C297.574 92.9166 295.775 94.3973 295.966 96.085C295.987 96.2643 295.947 96.4456 295.851 96.599C295.756 96.7523 295.611 96.8686 295.441 96.9288C295.269 96.9854 295.083 96.9833 294.913 96.9228C294.743 96.8622 294.598 96.7467 294.501 96.5944C294.372 96.4012 294.203 96.2383 294.005 96.1173C293.807 95.9963 293.585 95.9201 293.354 95.8939C293.218 95.8187 293.074 95.7599 292.924 95.7188Z" fill="#231F20"/>
<path d="M319.678 118.996C319.678 118.996 322.768 126.782 321.526 128.008C320.284 129.234 317.385 127.626 317.385 127.626" fill="white"/>
<path d="M320.22 129.218C319.102 129.143 318.014 128.822 317.035 128.278C316.943 128.228 316.862 128.16 316.796 128.079C316.73 127.997 316.681 127.904 316.651 127.803C316.622 127.702 316.612 127.597 316.623 127.493C316.635 127.389 316.666 127.288 316.716 127.196C316.767 127.104 316.834 127.022 316.916 126.957C316.998 126.891 317.091 126.842 317.192 126.812C317.292 126.783 317.398 126.773 317.502 126.784C317.606 126.796 317.707 126.827 317.799 126.877C318.771 127.419 320.459 127.944 320.984 127.387C321.51 126.829 320.427 122.945 318.962 119.235C318.921 119.138 318.9 119.034 318.9 118.928C318.9 118.823 318.922 118.719 318.964 118.622C319.005 118.526 319.066 118.438 319.143 118.366C319.219 118.293 319.309 118.237 319.408 118.2C319.505 118.161 319.609 118.142 319.714 118.143C319.818 118.145 319.922 118.167 320.018 118.208C320.114 118.25 320.201 118.31 320.274 118.385C320.347 118.46 320.404 118.549 320.443 118.646C321.653 121.735 323.5 127.132 322.035 128.517C321.547 128.982 320.894 129.234 320.22 129.218Z" fill="#231F20"/>
<path d="M320.618 109.698C323.007 112.659 321.128 117.436 320.411 120.668C319.424 125.205 318.325 129.727 317.13 134.201C316.366 137.051 308.897 135.539 307.751 134.408L306.445 144.073C306.445 144.073 303.578 148.976 298.148 144.916C292.717 140.856 292.128 136.717 292.128 136.717L295.313 123.693C295.313 123.693 300.25 124.76 304.39 119.506C308.531 114.251 310.33 105.176 310.33 105.176C310.33 105.176 318.293 106.816 320.618 109.698Z" fill="white"/>
<path d="M302.24 147.321C300.565 147.244 298.961 146.624 297.67 145.553C292.048 141.35 291.3 137.019 291.3 136.828C291.276 136.729 291.276 136.625 291.3 136.526L294.612 123.486C294.661 123.286 294.788 123.113 294.964 123.006C295.14 122.898 295.351 122.865 295.552 122.913C295.727 122.913 300.059 123.788 303.833 119.012C307.814 113.965 309.582 105.128 309.614 105.049C309.631 104.945 309.669 104.846 309.727 104.758C309.784 104.671 309.86 104.596 309.948 104.539C310.034 104.483 310.131 104.444 310.232 104.425C310.333 104.406 310.437 104.407 310.537 104.428C310.872 104.428 318.755 106.116 321.239 109.204C323.468 111.975 322.449 115.939 321.621 119.123C321.462 119.728 321.319 120.318 321.191 120.859C320.204 125.397 319.089 129.95 317.895 134.424C317.742 134.937 317.447 135.396 317.044 135.748C316.641 136.1 316.146 136.331 315.617 136.414C313.187 136.839 310.687 136.592 308.388 135.698L307.225 144.2C307.21 144.305 307.178 144.408 307.129 144.502C306.264 145.881 304.891 146.864 303.307 147.241C302.955 147.3 302.598 147.326 302.24 147.321ZM293.02 136.749C293.991 139.839 295.999 142.499 298.705 144.28C299.295 144.804 299.988 145.198 300.739 145.436C301.491 145.675 302.285 145.753 303.069 145.665C304.157 145.38 305.11 144.72 305.76 143.802L307.05 134.249C307.072 134.103 307.135 133.966 307.23 133.854C307.326 133.741 307.451 133.658 307.591 133.612C307.731 133.564 307.881 133.556 308.025 133.59C308.169 133.624 308.3 133.698 308.403 133.803C310.533 134.855 312.941 135.206 315.283 134.806C315.936 134.631 316.334 134.344 316.446 133.962C317.624 129.504 318.723 124.967 319.726 120.445C319.838 119.888 319.997 119.299 320.156 118.662C320.889 115.828 321.749 112.293 320.076 110.144C318.484 108.185 313.595 106.705 311.079 106.1C310.537 108.472 308.706 115.462 305.155 119.951C304.141 121.41 302.777 122.591 301.189 123.387C299.6 124.182 297.837 124.567 296.062 124.505L293.02 136.749Z" fill="#231F20"/>
<path d="M317.736 130.794C317.232 130.999 316.69 131.094 316.147 131.07C315.603 131.047 315.072 130.906 314.588 130.659C314.104 130.411 313.679 130.061 313.343 129.634C313.007 129.206 312.767 128.711 312.64 128.183" fill="white"/>
<path d="M316.175 131.829C315.446 131.839 314.725 131.676 314.073 131.351C313.516 131.043 313.032 130.619 312.653 130.108C312.274 129.598 312.009 129.012 311.875 128.39C311.821 128.187 311.85 127.972 311.954 127.79C312.058 127.608 312.23 127.474 312.432 127.419C312.637 127.364 312.855 127.392 313.039 127.496C313.224 127.601 313.36 127.773 313.42 127.976C313.496 128.383 313.659 128.769 313.898 129.107C314.137 129.445 314.447 129.727 314.805 129.934C315.649 130.29 316.594 130.33 317.465 130.046C317.665 129.979 317.884 129.993 318.075 130.086C318.265 130.178 318.412 130.34 318.484 130.539C318.519 130.636 318.535 130.74 318.53 130.843C318.525 130.946 318.499 131.047 318.455 131.141C318.41 131.234 318.348 131.318 318.271 131.386C318.194 131.455 318.104 131.508 318.006 131.542C317.414 131.73 316.796 131.826 316.175 131.829Z" fill="#231F20"/>
<path d="M310.346 120.015C310.463 118.856 310.253 117.687 309.741 116.64C309.45 115.779 309.037 114.964 308.515 114.22C308.25 113.853 307.906 113.551 307.51 113.333C307.113 113.116 306.673 112.989 306.222 112.962C305.823 112.978 305.432 113.079 305.075 113.257C304.719 113.435 304.404 113.688 304.151 113.997C303.643 114.618 303.283 115.348 303.1 116.13C302.675 117.819 302.7 119.589 303.172 121.265C303.644 122.941 304.548 124.465 305.792 125.683L305.585 125.349" fill="white"/>
<path d="M305.76 126.527C305.553 126.525 305.354 126.445 305.203 126.304C303.858 124.976 302.883 123.319 302.374 121.499C301.866 119.678 301.842 117.756 302.304 115.923C302.517 115.025 302.931 114.186 303.515 113.471C303.842 113.076 304.25 112.755 304.712 112.53C305.173 112.305 305.677 112.181 306.19 112.166C306.764 112.194 307.325 112.351 307.83 112.627C308.335 112.903 308.77 113.29 309.104 113.758C309.678 114.56 310.124 115.446 310.426 116.385C310.999 117.572 311.225 118.896 311.079 120.206C311.039 120.417 310.916 120.604 310.739 120.725C310.561 120.846 310.343 120.891 310.131 120.851C309.92 120.811 309.734 120.688 309.613 120.511C309.492 120.333 309.446 120.115 309.486 119.904C309.57 118.883 309.372 117.858 308.913 116.942C308.654 116.161 308.284 115.421 307.814 114.745C307.624 114.472 307.375 114.244 307.086 114.079C306.797 113.914 306.474 113.815 306.142 113.79C305.858 113.807 305.58 113.884 305.328 114.015C305.076 114.147 304.854 114.331 304.677 114.554C304.245 115.081 303.945 115.703 303.801 116.369C303.431 117.811 303.418 119.32 303.762 120.768C304.106 122.216 304.797 123.559 305.776 124.68C305.949 124.74 306.095 124.858 306.19 125.014L306.381 125.349C306.454 125.469 306.494 125.606 306.497 125.746C306.5 125.886 306.466 126.025 306.398 126.148C306.33 126.271 306.231 126.373 306.11 126.446C305.99 126.518 305.853 126.557 305.712 126.559L305.76 126.527Z" fill="#231F20"/>
<path d="M307.751 134.408C305.681 133.226 303.995 131.474 302.893 129.361C302.893 129.361 301.699 136.335 307.209 139.583L307.751 134.408Z" fill="#231F20"/>
<path d="M307.209 140.379C307.068 140.383 306.929 140.345 306.811 140.267C300.887 136.78 302.033 129.536 302.113 129.234C302.145 129.063 302.23 128.906 302.355 128.786C302.481 128.666 302.641 128.589 302.814 128.565C302.987 128.545 303.161 128.583 303.311 128.672C303.461 128.761 303.577 128.897 303.642 129.059C304.669 131.007 306.233 132.62 308.149 133.708C308.283 133.786 308.391 133.901 308.462 134.039C308.532 134.178 308.562 134.333 308.547 134.488L308.005 139.694C307.99 139.829 307.941 139.958 307.864 140.069C307.786 140.181 307.681 140.271 307.559 140.331C307.447 140.371 307.328 140.387 307.209 140.379ZM303.61 131.988C303.67 133.152 303.962 134.292 304.468 135.341C304.974 136.391 305.684 137.33 306.556 138.102L306.906 134.758C305.683 133.994 304.573 133.062 303.61 131.988Z" fill="#231F20"/>
<path d="M318.379 115.515C318.714 114.665 318.714 113.868 318.378 113.736C318.043 113.603 317.499 114.186 317.164 115.037C316.828 115.888 316.829 116.685 317.164 116.817C317.5 116.949 318.043 116.366 318.379 115.515Z" fill="#231F20"/>
<path d="M287.574 132.625C287.574 132.625 304.295 135.475 309.869 145.362C315.442 155.25 316.732 190.436 319.758 193.127C322.784 195.818 330.603 209.749 330.428 210.386C330.253 211.023 280.328 220.432 280.328 220.432C280.328 220.432 278.863 209.017 275.327 194.003C271.792 178.989 273.448 131.924 287.574 132.625Z" fill="white"/>
<path d="M280.407 221.244C280.242 221.246 280.081 221.196 279.945 221.101C279.858 221.038 279.784 220.957 279.729 220.864C279.675 220.771 279.64 220.667 279.627 220.56C279.627 220.448 278.034 208.985 274.627 194.194C271.824 182.268 271.951 146.126 281.172 135.061C281.91 134.049 282.882 133.231 284.005 132.676C285.128 132.121 286.369 131.847 287.621 131.877H287.717C288.418 131.988 304.868 134.886 310.633 144.964C313.818 150.632 315.633 163.895 317.162 175.597C318.15 183.096 319.264 191.519 320.347 192.586C322.959 194.942 331.622 209.287 331.256 210.641C331.081 211.277 330.953 211.755 280.535 221.276L280.407 221.244ZM287.255 133.421C286.309 133.47 285.386 133.736 284.558 134.197C283.73 134.657 283.018 135.302 282.478 136.08C274.181 146.031 273.225 180.915 276.251 193.827C279.229 206.421 280.758 216.611 281.172 219.525C299.135 216.118 325.093 211.086 329.584 209.972C328.294 207.154 322.003 196.184 319.376 193.796C317.911 192.458 317.051 186.408 315.665 175.836C314.216 164.85 312.48 151.174 309.295 145.776C304.056 136.621 288.497 133.66 287.542 133.485L287.255 133.421Z" fill="#231F20"/>
<path d="M309.359 144.391L308.037 149.199L309.98 149.916L310.505 183.829L317.576 190.054L320.698 179.498L311.509 150.043L312.878 148.435L309.359 144.391Z" fill="#EF626C"/>
<path d="M299.565 148.387C299.9 148.929 315.203 181.568 315.203 181.568L355.239 168.019L363.201 179.801C363.201 179.801 328.389 199.925 315.426 202.521C302.463 205.116 279.372 157.208 280.28 152.431" fill="white"/>
<path d="M314.455 203.38C311.652 203.38 308.372 201.518 304.677 197.824C293.02 186.137 278.687 156.539 279.563 152.208C279.609 152.004 279.733 151.825 279.908 151.709C280.083 151.593 280.296 151.55 280.503 151.588C280.605 151.608 280.703 151.649 280.789 151.708C280.876 151.766 280.95 151.841 281.008 151.929C281.066 152.016 281.106 152.114 281.126 152.216C281.145 152.319 281.145 152.424 281.124 152.527C280.439 155.902 293.864 184.752 305.808 196.741C309.63 200.562 312.831 202.234 315.363 201.74C326.94 199.416 356.975 182.444 362.071 179.45L354.952 168.894L315.506 182.237C315.319 182.299 315.116 182.291 314.934 182.215C314.753 182.139 314.605 182 314.519 181.823C310.33 172.875 299.358 149.502 298.928 148.722C298.828 148.539 298.801 148.325 298.855 148.123C298.908 147.921 299.037 147.748 299.215 147.639C299.393 147.532 299.606 147.498 299.808 147.546C300.01 147.594 300.186 147.718 300.298 147.894C300.616 148.419 312.544 173.83 315.665 180.501L355.032 167.191C355.197 167.138 355.375 167.14 355.539 167.197C355.703 167.255 355.844 167.364 355.94 167.509L363.902 179.275C363.963 179.365 364.004 179.467 364.023 179.574C364.043 179.681 364.039 179.791 364.014 179.896C363.992 180.002 363.948 180.102 363.885 180.19C363.822 180.278 363.741 180.351 363.647 180.406C362.214 181.233 328.612 200.626 315.713 203.221C315.301 203.32 314.879 203.373 314.455 203.38Z" fill="#231F20"/>
<path d="M316.286 202.759C307.671 202.759 299.278 194.91 291.3 179.387C291.251 179.294 291.221 179.192 291.212 179.088C291.204 178.984 291.216 178.878 291.249 178.779C291.281 178.679 291.334 178.587 291.403 178.508C291.472 178.43 291.556 178.365 291.65 178.32C291.837 178.224 292.053 178.206 292.252 178.268C292.452 178.331 292.619 178.469 292.717 178.654C300.759 194.305 309.056 201.868 317.401 201.12C325.746 200.371 343.9 189.449 344.075 189.338C344.164 189.272 344.266 189.226 344.373 189.202C344.481 189.178 344.592 189.177 344.7 189.198C344.809 189.219 344.911 189.263 345.002 189.326C345.092 189.389 345.168 189.47 345.226 189.564C345.284 189.658 345.321 189.763 345.336 189.872C345.351 189.981 345.343 190.092 345.312 190.198C345.282 190.304 345.23 190.403 345.16 190.487C345.089 190.572 345.002 190.642 344.904 190.691C344.155 191.153 326.399 201.932 317.544 202.712L316.286 202.759Z" fill="#231F20"/>
<path d="M308.833 337.981C308.833 337.981 304.422 348.967 304.725 350.018C305.027 351.069 320.761 376.926 323.405 369.84C326.048 362.755 320.507 345.417 320.507 345.417L308.833 337.981Z" fill="#231F20"/>
<path d="M321.924 371.862H321.828C316.477 371.624 304.311 351.292 303.96 350.225C303.61 349.158 306.047 342.806 308.101 337.679C308.148 337.573 308.217 337.478 308.301 337.398C308.386 337.319 308.486 337.258 308.595 337.217C308.706 337.185 308.824 337.177 308.939 337.194C309.054 337.21 309.165 337.251 309.263 337.313L320.936 344.764C321.093 344.858 321.211 345.005 321.271 345.178C321.494 345.894 326.861 362.851 324.153 370.111C324.027 370.608 323.74 371.049 323.336 371.366C322.933 371.683 322.437 371.857 321.924 371.862ZM309.184 339.16C307.682 342.64 306.442 346.227 305.473 349.891C306.062 351.355 317.863 370.27 321.908 370.27C322.067 370.27 322.37 370.27 322.64 369.554C324.981 363.281 320.491 348.155 319.806 345.942L309.184 339.16Z" fill="#231F20"/>
<path d="M340.97 242.532C340.832 242.534 340.696 242.5 340.576 242.433C340.456 242.366 340.356 242.268 340.285 242.149L326.654 219.652C326.577 219.475 326.567 219.276 326.626 219.093C326.685 218.909 326.809 218.753 326.975 218.654C327.14 218.554 327.336 218.519 327.526 218.553C327.716 218.587 327.887 218.689 328.007 218.84L341.639 241.321C341.696 241.411 341.734 241.51 341.752 241.615C341.769 241.719 341.765 241.826 341.74 241.929C341.714 242.032 341.668 242.128 341.604 242.213C341.541 242.297 341.46 242.368 341.368 242.42C341.249 242.494 341.111 242.532 340.97 242.532Z" fill="white"/>
<defs>
<linearGradient id="paint0_linear" x1="467.701" y1="389.838" x2="467.701" y2="285.806" gradientUnits="userSpaceOnUse">
<stop stop-color="#19F18A"/>
<stop offset="1" stop-color="#49C6E5"/>
</linearGradient>
<linearGradient id="paint1_linear" x1="324.106" y1="389.822" x2="324.106" y2="236.816" gradientUnits="userSpaceOnUse">
<stop stop-color="#19F18A"/>
<stop offset="1" stop-color="#49C6E5"/>
</linearGradient>
<linearGradient id="paint2_linear" x1="180.494" y1="389.822" x2="180.494" y2="157.463" gradientUnits="userSpaceOnUse">
<stop stop-color="#19F18A"/>
<stop offset="1" stop-color="#49C6E5"/>
</linearGradient>
<linearGradient id="paint3_linear" x1="221.583" y1="103.345" x2="221.583" y2="129.899" gradientUnits="userSpaceOnUse">
<stop stop-color="#19F18A"/>
<stop offset="1" stop-color="#49C6E5"/>
</linearGradient>
<linearGradient id="paint4_linear" x1="458.282" y1="240.955" x2="458.282" y2="265.045" gradientUnits="userSpaceOnUse">
<stop stop-color="#19F18A"/>
<stop offset="1" stop-color="#49C6E5"/>
</linearGradient>
<linearGradient id="paint5_linear" x1="469.174" y1="250.906" x2="469.174" y2="265.045" gradientUnits="userSpaceOnUse">
<stop stop-color="#19F18A"/>
<stop offset="1" stop-color="#49C6E5"/>
</linearGradient>
<linearGradient id="paint6_linear" x1="480.067" y1="244.426" x2="480.067" y2="265.045" gradientUnits="userSpaceOnUse">
<stop stop-color="#19F18A"/>
<stop offset="1" stop-color="#49C6E5"/>
</linearGradient>
<linearGradient id="paint7_linear" x1="490.976" y1="256.192" x2="490.976" y2="265.045" gradientUnits="userSpaceOnUse">
<stop stop-color="#19F18A"/>
<stop offset="1" stop-color="#49C6E5"/>
</linearGradient>
<linearGradient id="paint8_linear" x1="501.868" y1="244.426" x2="501.868" y2="265.045" gradientUnits="userSpaceOnUse">
<stop stop-color="#19F18A"/>
<stop offset="1" stop-color="#49C6E5"/>
</linearGradient>
<linearGradient id="paint9_linear" x1="485.632" y1="107.182" x2="485.632" y2="164.197" gradientUnits="userSpaceOnUse">
<stop stop-color="#19F18A"/>
<stop offset="1" stop-color="#49C6E5"/>
</linearGradient>
</defs>
</svg>
